<svg width="359" height="363" viewBox="0 0 359 363" fill="none" xmlns="http://www.w3.org/2000/svg">
<path d="M0.888256 28.1129C2.27367 7.85243 13.5393 3.17014 32.9247 1.2691C52.3101 -0.63194 149.3 1.2691 149.3 1.2691V39.8889C149.3 39.8889 115.362 52.1024 118.211 74.2691C121.065 96.4306 131.893 108.207 149.3 109.597V148.733L98.9039 150.998C99.3414 178.722 77.6903 183.113 63.0601 175.576C48.4299 168.04 52.2372 150.998 52.2372 150.998H0.888256C0.888256 150.998 -0.575286 48.3733 0.888256 28.1129ZM220.987 177.842L207.524 212.149C216.961 215.878 227.862 230.436 222.518 251.285C217.18 272.128 194.654 282.738 181.706 277.691L167.222 314.483C167.222 314.483 261.946 355.155 274.529 359.54C287.112 363.931 304.227 368.321 315.492 341.253C326.753 314.118 358.503 231.972 358.503 231.972L312.347 213.832C312.347 213.832 318.784 184.28 304.008 176.748C289.232 169.212 272.92 177.113 267.654 193.425L220.987 177.842Z" fill="#234AFF"/>
<path d="M280.529 0.388889C309.857 1.2691 307.737 21.3837 308.836 32.5764C309.93 43.7639 308.836 150.925 308.836 150.925H270.946C269.847 141.712 254.925 116.326 226.617 121.155C198.31 125.983 201.013 150.925 201.013 150.925H163.128V101.405C148.206 101.92 131.602 89.1181 133.206 73.6806C134.815 58.1754 151.347 48.592 160.93 51.3004L163.055 0.388889C163.055 0.388889 251.123 -0.486111 280.529 0.388889ZM109.144 162.337C111.263 177.842 87.7841 200.738 66.4248 194.889C45.0654 189.035 39.7269 162.337 39.7269 162.337H0.226852C0.226852 162.337 -0.283564 252.014 0.226852 276.592C0.737269 301.17 19.4664 311.847 33.3623 312.436C47.2633 313.019 149.008 309.727 149.008 309.727L149.3 261.16C170.222 262.769 182.878 244.628 180.17 232.337C177.534 220.05 165.248 210.467 149.3 213.102C149.3 213.102 148.716 164.019 149.3 162.41H109.144V162.337Z" fill="#8499FF"/>
</svg>
