<?xml version="1.0" encoding="UTF-8"?>
<!-- Generator: Adobe Illustrator 16.0.0, SVG Export Plug-In . SVG Version: 6.00 Build 0)  -->
<!DOCTYPE svg PUBLIC "-//W3C//DTD SVG 1.1//EN" "http://www.w3.org/Graphics/SVG/1.1/DTD/svg11.dtd">
<svg version="1.1" id="Layer_1" xmlns="http://www.w3.org/2000/svg" xmlns:xlink="http://www.w3.org/1999/xlink" x="0px" y="0px" width="1438px" height="366px" viewBox="0 0 1438 366" enable-background="new 0 0 1438 366" xml:space="preserve">
<g>
	<path d="M1437.891,0.471c0,33.752,0,66.98,0,100.583c-1.093,0.052-2.154,0.145-3.21,0.145   c-101.979,0.006-203.957,0.021-305.937-0.062c-4.854-0.003-6.664,1.218-6.499,6.512c0.265,8.178,0.067,16.368,0.067,24.822   c105.281,0,210.255,0,315.455,0c0,33.67,0,67.066,0,100.776c-104.955,0-209.941,0-315.283,0c-0.067,1.249-0.159,2.209-0.166,3.17   c-0.012,7.807-0.012,15.61,0,23.417c0.007,3.124,1.4,4.618,4.512,4.787c1.516,0.08,3.037,0.016,4.56,0.016   c100.659,0,201.325,0,301.983,0c1.399,0,2.806,0,4.407,0c0,33.626,0,67.023,0,100.861c-1.068,0-2.142,0-3.216,0   c-119.108,0-238.223,0.083-357.33-0.132c-12.165-0.021-23.838-3.495-34.922-8.875c-14.619-7.095-26.262-17.574-35.094-30.95   c-6.113-9.271-10.631-19.489-12.098-30.718c-0.632-4.849-1.35-9.74-1.355-14.61c-0.086-66.093-0.104-132.187-0.006-198.28   c0.012-9.779,2.283-19.293,6.426-28.091c3.344-7.098,7.242-14.073,11.869-20.385c6.334-8.635,14.717-15.26,23.911-20.827   c8.23-4.99,17.074-8.377,26.446-10.348c4.29-0.905,8.709-1.721,13.072-1.725c119.415-0.095,238.83-0.083,358.245-0.086   C1435.024,0.471,1436.319,0.471,1437.891,0.471z M1407.971,30.363c-1.626,0-3.025,0-4.425,0c-107.95,0-215.907-0.034-323.857,0.111   c-5.106,0.003-10.391,1.006-15.282,2.535c-10.918,3.403-20.26,9.307-27.624,18.384c-8.55,10.529-13.091,22.414-13.109,35.855   c-0.099,63.15-0.073,126.301,0.013,189.451c0.006,4.478,0.453,9.031,1.361,13.413c2.99,14.457,10.9,25.783,22.728,34.486   c9.61,7.07,20.609,10.832,32.288,10.854c108.153,0.215,216.307,0.123,324.465,0.111c1.16,0,2.326-0.142,3.357-0.206   c0-13.809,0-27.237,0-40.851c-1.645,0-3.05,0-4.455,0c-95.186,0-190.37,0-285.549-0.006c-6.727,0-12.574-2.464-17.424-6.96   c-5.775-5.364-8.659-12.167-8.666-20.088c-0.023-20.271-0.012-40.546-0.006-60.818c0-0.976,0.086-1.951,0.147-3.329   c105.501,0,210.739,0,315.946,0c0-13.843,0-27.263,0-40.937c-105.409,0-210.586,0-316.124,0c0-1.325,0-2.412,0-3.501   c0.006-19.766,0.03-39.531,0.024-59.297c0-5.701,0.988-11.09,4.21-15.96c5.058-7.647,12.029-12.238,21.248-12.247   c95.485-0.092,190.971-0.056,286.456-0.056c1.381,0,2.762,0,4.277,0C1407.971,57.577,1407.971,44.234,1407.971,30.363z"/>
	<path d="M635.652,365.501c-1.398,0-2.384,0-3.374,0c-40.547,0-81.095-0.027-121.643,0.062c-2.835,0.006-3.791-0.574-3.771-3.627   c0.143-21.592-0.328-43.192,0.218-64.771c0.376-14.827,4.805-28.612,13.892-40.739c8.048-10.74,18.554-18.372,29.854-25.213   c10.88-6.588,21.578-13.472,32.377-20.191c9.167-5.705,18.368-11.354,27.546-17.041c6.452-3.998,12.887-8.021,19.756-12.299   c-5.808-3.605-11.138-6.92-16.471-10.229c-16.428-10.182-32.867-20.342-49.279-30.545c-8.153-5.073-16.466-9.922-24.338-15.402   c-14.374-10.01-25.43-22.821-30.05-40.08c-1.863-6.969-3.118-14.291-3.276-21.48c-0.439-19.861-0.154-39.737-0.154-59.604   c0-1.102,0-2.203,0-3.59c42.916,0,85.61,0,128.71,0c0,1.068,0,2.145,0,3.225c0,16.927,0.049,33.857-0.048,50.787   c-0.017,2.924,0.885,4.895,3.423,6.438c13.424,8.159,26.802,16.396,40.162,24.659c9.708,6.003,19.365,12.088,29.049,18.13   c7.138,4.453,14.302,8.859,21.412,13.353c1.69,1.067,2.955,1.135,4.793-0.034c11.214-7.162,22.53-14.168,33.848-21.165   c10.464-6.472,20.983-12.86,31.473-19.305c8.69-5.343,17.399-10.661,26.034-16.099c2.395-1.51,3.161-4.004,3.155-6.803   c-0.024-16.525-0.013-33.05-0.013-49.571c0-1.185,0-2.373,0-3.729c42.975,0,85.592,0,128.578,0c0,1.329,0,2.513,0,3.694   c0,17.335-0.024,34.67,0.013,52.005c0.024,11.962-1.074,23.776-5.61,34.949c-2.865,7.073-6.824,13.545-11.777,19.489   c-9.984,11.986-23.401,19.274-36.283,27.323c-9.938,6.205-19.892,12.37-29.847,18.541c-12.416,7.7-24.845,15.384-37.267,23.089   c-0.926,0.574-1.811,1.228-2.951,2.007c7.818,4.92,15.49,9.786,23.205,14.586c9.777,6.082,19.603,12.1,29.392,18.16   c11.575,7.163,23.286,14.113,34.664,21.57c12.532,8.215,23.052,18.522,29.337,32.393c3.805,8.39,6.389,17.194,6.463,26.575   c0.178,22.463,0.436,44.932,0.656,67.395c0.006,0.893-0.08,1.789-0.129,2.882c-42.753,0-85.371,0-128.443,0   c0-1.286,0-2.462,0-3.634c0-16.728-0.221-33.455,0.129-50.173c0.111-5.187-1.92-8.074-6.051-10.581   c-12.227-7.42-24.286-15.119-36.457-22.632c-13.453-8.298-26.964-16.503-40.438-24.767c-4.008-2.458-8.064-4.855-11.922-7.54   c-1.556-1.08-2.489-1.182-4.128-0.147c-15.148,9.559-30.356,19.02-45.571,28.475c-15.374,9.556-30.762,19.087-46.173,28.578   c-1.924,1.185-2.724,2.651-2.716,4.947c0.072,17.939,0.04,35.882,0.04,53.824C635.652,362.752,635.652,363.859,635.652,365.501z    M776.201,181.745c4.376-2.79,8.279-5.337,12.238-7.792c10.378-6.432,20.793-12.806,31.172-19.237   c7.818-4.846,15.595-9.768,23.408-14.616c8.672-5.379,17.381-10.694,26.053-16.062c7.99-4.949,16.049-9.811,23.924-14.938   c6.787-4.416,13.833-8.61,19.928-13.876c9.408-8.126,13.533-19.158,14.012-31.454c0.27-7.089,0.049-14.193,0.049-21.288   c0-3.925,0-7.85,0-11.888c-22.85,0-45.38,0-68.137,0c0,9.639,0.055,19.05-0.043,28.462c-0.025,2.381-0.289,4.83-0.896,7.126   c-2.222,8.358-7.396,14.588-14.613,19.139C831.1,93.008,818.838,100.6,806.6,108.223c-7.721,4.812-15.453,9.607-23.181,14.41   c-10.28,6.38-20.558,12.763-30.843,19.133c-6.215,3.846-12.395,7.743-18.711,11.419c-0.908,0.531-2.715,0.378-3.686-0.184   c-6.846-3.956-13.631-8.019-20.337-12.201c-16.557-10.333-33.042-20.788-49.601-31.123c-13.498-8.427-27.123-16.65-40.563-25.16   c-6.271-3.974-11.073-9.534-12.819-16.819c-1.271-5.306-1.53-10.909-1.755-16.399c-0.282-6.858-0.067-13.738-0.067-20.695   c-22.863,0-45.397,0-68.484,0c0.364,12.149,0.708,24.043,1.077,35.937c0.224,7.169,2.517,13.689,6.237,19.771   c5.37,8.773,13.604,14.365,22.036,19.658c15.692,9.848,31.488,19.523,47.235,29.275c10.47,6.484,20.925,12.996,31.403,19.465   c9.114,5.625,18.27,11.183,27.373,16.819c5.258,3.256,10.452,6.613,16.062,10.167c-4.815,3.044-9.341,5.956-13.92,8.785   c-12.164,7.519-24.373,14.969-36.526,22.506c-9.007,5.585-17.934,11.299-26.934,16.89c-13,8.083-26.104,15.991-39.021,24.197   c-6.912,4.391-13.932,8.767-20.184,14.009c-10.24,8.586-13.915,20.544-14.418,33.436c-0.411,10.526-0.084,21.082-0.064,31.623   c0.002,0.765,0.175,1.525,0.256,2.191c22.73,0,45.179,0,67.874,0c0-1.243,0-2.24,0-3.237c0.006-8.007-0.077-16.016,0.061-24.021   c0.052-3.081,0.445-6.184,0.958-9.229c1.591-9.479,7.434-16.012,15.184-21.023c8.224-5.317,16.571-10.445,24.885-15.622   c8.839-5.499,17.704-10.965,26.564-16.434c10.472-6.459,20.968-12.885,31.426-19.369c8.839-5.483,17.616-11.065,26.499-16.479   c0.727-0.442,2.264-0.261,3.063,0.227c11.875,7.221,23.681,14.546,35.511,21.837c12.87,7.936,25.746,15.853,38.61,23.801   c9.715,5.999,19.455,11.959,29.085,18.09c4.296,2.737,8.665,5.499,12.44,8.878c6.598,5.907,9.354,13.775,9.488,22.503   c0.141,9.019,0.031,18.047,0.031,27.068c0,0.979,0,1.958,0,3.022c22.91,0,45.447,0,68.143,0c0-12.296,0.055-24.355-0.024-36.413   c-0.043-6.711-2.062-13.051-4.94-18.974c-3.443-7.092-9.004-12.777-15.454-17.043c-13.95-9.219-28.3-17.835-42.501-26.667   c-12.158-7.562-24.335-15.089-36.512-22.613c-9.273-5.732-18.572-11.415-27.839-17.166   C792.072,191.728,784.463,186.922,776.201,181.745z"/>
	<path d="M470.191,365.336c-43.052,0-85.673,0-128.702,0c0-30.982,0-61.822,0-92.844c-71.014,0-141.623,0-212.624,0   c0,30.847,0,61.689,0,92.767c-43.078,0-85.764,0-128.739,0c0-1.206,0-2.296,0-3.385c0-92.843-0.078-185.687,0.103-278.529   c0.021-10.799,2.984-21.178,7.366-31.169c5.051-11.511,12.313-21.352,21.599-29.641C39.024,13.762,50.39,7.618,63.073,3.807   c10.26-3.084,20.712-3.375,31.284-3.37c97.504,0.055,195.011-0.046,292.518,0.117c14.687,0.021,28.543,4.216,40.909,12.226   c6.532,4.232,12.987,8.899,18.451,14.389c9.178,9.228,15.962,20.226,19.902,32.776c2.583,8.222,4.125,16.571,4.115,25.289   c-0.097,91.932-0.06,183.864-0.06,275.793C470.191,362.337,470.191,363.645,470.191,365.336z M440.292,335.449   c0-1.942,0-3.547,0-5.149c0-79.062,0.014-158.12-0.034-237.179c-0.003-4.916-0.004-9.918-0.884-14.721   c-0.925-5.048-2.45-10.102-4.524-14.797c-3.789-8.571-9.604-15.746-17.152-21.374c-9.624-7.174-20.404-11.759-32.459-11.781   c-90.919-0.141-181.838-0.104-272.757-0.055c-10.803,0.006-21.619,0.166-32.404,0.715c-7.911,0.408-15.164,3.455-21.858,7.573   c-8.7,5.355-15.744,12.456-20.706,21.423c-3.793,6.855-6.73,14.257-6.745,22.088c-0.164,83.315-0.103,166.633-0.095,249.948   c0,1.067,0.095,2.136,0.147,3.243c22.8,0,45.258,0,68.102,0c0-31.046,0-61.893,0-92.791c91.242,0,182.096,0,273.359,0   c0,31.08,0,61.914,0,92.855C395.053,335.449,417.419,335.449,440.292,335.449z"/>
	<path d="M372.141,201.885c-91.428,0-182.501,0-274.021,0c0-1.12,0-2.188,0-3.262c0-33.038-0.21-66.078,0.098-99.113   c0.135-14.622,7.968-24.659,22.994-28.127c0.773-0.178,1.617-0.074,2.426-0.074c74.184-0.003,148.37-0.095,222.552,0.08   c12.361,0.031,23.736,9.488,25.149,22.653c0.483,4.483,0.746,9.013,0.756,13.521c0.069,30.3,0.043,60.604,0.046,90.903   C372.141,199.556,372.141,200.648,372.141,201.885z M341.474,172.057c0-1.355,0-2.448,0-3.541   c-0.006-20.468-0.014-40.937-0.018-61.404c-0.001-5.232-0.655-5.901-5.918-5.901c-67.178-0.006-134.356-0.006-201.535-0.003   c-3.977,0-5.25,1.259-5.25,5.205c-0.003,20.974,0.003,41.948,0.017,62.923c0,0.875,0.111,1.746,0.177,2.722   C199.772,172.057,270.365,172.057,341.474,172.057z"/>
</g>
</svg>