<svg xmlns="http://www.w3.org/2000/svg" width="100" height="20" viewBox="0 0 100 20" fill="none"><path d="M15.0711 13.885L17.5974 16.0517C17.1141 16.7268 16.5302 17.325 15.8656 17.8259C15.0391 18.4728 14.1208 18.9948 13.1403 19.375C12.0552 19.7959 10.8989 20.0064 9.73388 19.995C7.96241 20.0259 6.21586 19.578 4.68135 18.6992C3.23515 17.8572 2.04759 16.6399 1.24637 15.1784C0.398043 13.624 -0.0307243 11.8783 0.00171283 10.1109C-0.0098737 8.7829 0.229707 7.46454 0.708026 6.22421C1.17388 5.0329 1.86809 3.94251 2.75222 3.01338C3.62361 2.08908 4.67659 1.3517 5.84622 0.846712C7.1103 0.310191 8.47333 0.0414032 9.8481 0.0575456C11.4896 -0.00307245 13.1171 0.376341 14.5597 1.15588C15.7538 1.84505 16.7885 2.77575 17.5965 3.88755L15.0426 6.14088C14.4756 5.30811 13.7528 4.59098 12.9135 4.02838C11.9929 3.47033 10.926 3.19596 9.8481 3.24005C8.69821 3.20652 7.56661 3.53116 6.61216 4.16838C5.69748 4.80099 4.97204 5.66706 4.51254 6.67505C4.0159 7.73403 3.76342 8.88956 3.77347 10.0575C3.76071 11.1976 4.01334 12.3252 4.5117 13.3525C4.96831 14.3062 5.67274 15.122 6.55253 15.7159C7.47107 16.3109 8.54991 16.6154 9.64654 16.5892C10.5701 16.6286 11.4909 16.465 12.3433 16.11C12.9561 15.8362 13.5138 15.4545 13.9894 14.9834L15.0678 13.885" fill="#182954"></path><path d="M18.5922 12.815C18.5796 11.5738 18.8928 10.3506 19.5009 9.26586C20.1068 8.19341 20.9883 7.29945 22.0557 6.67502C23.2132 6.04679 24.5114 5.71753 25.8308 5.71753C27.1502 5.71753 28.4484 6.04679 29.6059 6.67502C30.6733 7.29945 31.5548 8.19341 32.1608 9.26586C32.7568 10.3552 33.069 11.5751 33.069 12.8146C33.069 14.0541 32.7568 15.274 32.1608 16.3634C31.5145 17.4583 30.5913 18.3669 29.4825 18.9992C28.3738 19.6315 27.1178 19.9656 25.839 19.9685C24.5601 19.9713 23.3027 19.6428 22.1911 19.0155C21.0794 18.3882 20.1521 17.4838 19.5009 16.3917C18.8929 15.3071 18.5798 14.0843 18.5922 12.8434V12.815ZM25.8023 17.0684C26.5653 17.0975 27.3158 16.8693 27.9313 16.4209C28.4931 15.996 28.9334 15.433 29.2087 14.7875C29.48 14.1745 29.6248 13.5137 29.6345 12.8442C29.6279 12.1743 29.483 11.513 29.2087 10.9009C28.9322 10.2561 28.4921 9.69333 27.9313 9.26752C27.3028 8.84535 26.5612 8.61971 25.8023 8.61971C25.0433 8.61971 24.3017 8.84535 23.6732 9.26752C23.1258 9.68809 22.6959 10.2406 22.4244 10.8725C22.1501 11.4846 22.0052 12.146 21.9986 12.8159C22.0037 13.495 22.1486 14.1659 22.4244 14.7875C22.6986 15.4336 23.1391 15.9969 23.7018 16.4209C24.3173 16.8693 25.0678 17.0975 25.8308 17.0684" fill="#182954"></path><path d="M33.7485 0.506592H37.1264V4.05576H33.7485V0.506592ZM33.7485 6.13993H37.1264V19.5183H33.7485V6.13993Z" fill="#182954"></path><path d="M38.46 19.5181V6.16813H41.6959L41.7799 7.68896C42.2259 7.22975 42.7318 6.83178 43.2841 6.50562C44.0591 6.06251 44.9452 5.84747 45.8389 5.88562C46.5489 5.84039 47.2602 5.95065 47.9224 6.20857C48.5847 6.46649 49.1817 6.86578 49.6711 7.37813C50.6077 8.50787 51.0839 9.94479 51.0056 11.4056V19.5173H47.5992V11.434C47.6206 11.0749 47.5687 10.7152 47.4468 10.3764C47.3248 10.0376 47.1353 9.72673 46.8895 9.46229C46.6518 9.22735 46.3677 9.04356 46.0552 8.92241C45.7426 8.80125 45.4082 8.74533 45.0729 8.75813C44.6337 8.7465 44.1972 8.83139 43.7949 9.00672C43.3926 9.18205 43.0343 9.44348 42.7457 9.77229C42.1339 10.4636 41.8091 11.3594 41.837 12.279V19.5173L38.46 19.5181Z" fill="#182954"></path><path d="M92.7351 9.32237L98.698 0.5032H93.0492L89.9552 5.43237L86.7722 0.5032H80.5271L80.8109 0.897367L80.6119 0.814034C79.1348 0.258481 77.5655 -0.0165737 75.986 0.00320033C74.1656 -0.0305009 72.3702 0.42719 70.7915 1.32737C69.6641 1.98306 68.6874 2.86558 67.9243 3.9182C67.0952 2.88699 66.0227 2.07442 64.8017 1.55237C63.1332 0.850197 61.3346 0.503549 59.5224 0.534867H52.1704V19.5182H59.4939C61.3084 19.5476 63.1083 19.1922 64.7732 18.4757C65.986 17.953 67.0562 17.1518 67.8957 16.1382C68.6713 17.2002 69.6684 18.0839 70.8193 18.729C72.3987 19.5956 74.1807 20.0329 75.9852 19.9965C77.6931 20.0268 79.3845 19.6604 80.9243 18.9265L80.5271 19.5182H86.0902L89.8091 13.6849L93.6413 19.5182H99.9998L92.7351 9.32237ZM63.1859 13.6557C62.6738 14.141 62.0666 14.5165 61.4019 14.7588C60.7373 15.0011 60.0294 15.105 59.3226 15.064H57.2515V4.92903H59.3234C60.0488 4.86804 60.779 4.9622 61.4645 5.20516C62.1501 5.44811 62.7752 5.83421 63.2976 6.33737C64.177 7.35242 64.6338 8.66173 64.575 9.99903C64.6027 10.6708 64.4938 11.3411 64.2549 11.9702C64.016 12.5993 63.6518 13.1742 63.1842 13.6607L63.1859 13.6557ZM83.5362 15.0407L81.1234 12.7907C80.558 13.518 79.866 14.1389 79.08 14.624C78.2396 15.055 77.2997 15.259 76.3547 15.2157C75.4195 15.2384 74.4962 15.0046 73.6865 14.5399C72.9283 14.0919 72.3161 13.437 71.9228 12.6532C71.4981 11.8051 71.2839 10.8685 71.298 9.92153C71.2798 8.99526 71.4842 8.07801 71.8943 7.2457C72.2828 6.4688 72.8827 5.81527 73.626 5.35903C74.4581 4.87062 75.4127 4.62644 76.3791 4.65487C77.2741 4.63699 78.1571 4.8608 78.9339 5.30237C79.6916 5.74854 80.349 6.34414 80.8655 7.05237L83.3918 4.5457L87.0821 9.81237L83.5362 15.0407Z" fill="#FA4A29"></path></svg>