<svg width="307" height="96" viewBox="0 0 307 96" fill="none" xmlns="http://www.w3.org/2000/svg">
<path d="M114.72 40.1875C112.33 40.1875 110.325 39.7343 108.7 38.8333C107.085 37.9323 105.809 36.6198 104.866 34.8958C103.918 33.177 103.241 31.0937 102.825 28.6458C102.418 26.2031 102.22 23.4166 102.22 20.2916C102.22 17.3229 102.418 14.5937 102.825 12.1041C103.241 9.61975 103.918 7.47913 104.866 5.68746C105.809 3.88538 107.085 2.49475 108.7 1.52079C110.325 0.536418 112.33 0.041626 114.72 0.041626C116.913 0.041626 118.731 0.427042 120.179 1.18746C121.622 1.95308 122.752 3.01558 123.575 4.37496C124.392 5.72392 124.918 7.28642 125.158 9.06246C125.392 10.8437 125.392 12.7448 125.158 14.7708L117.595 15.6041C117.788 13.5625 117.767 11.8489 117.533 10.4583C117.293 9.07288 116.908 8.03642 116.366 7.35413C115.825 6.67704 115.158 6.33329 114.366 6.33329C113.668 6.33329 113.064 6.61975 112.554 7.18746C112.038 7.74475 111.622 8.58329 111.304 9.70829C110.997 10.8229 110.752 12.2083 110.575 13.875C110.408 15.5312 110.325 17.4323 110.325 19.5833C110.325 23.1406 110.497 25.9583 110.845 28.0416C111.205 30.1145 111.7 31.5937 112.325 32.4791C112.95 33.3541 113.668 33.7916 114.491 33.7916C115.543 33.7916 116.356 33.2604 116.929 32.1875C117.497 31.1041 117.856 29.6823 118.012 27.9166C118.163 26.1562 118.142 24.2395 117.95 22.1666L125.637 23.1666C125.939 25.7083 125.976 28.0312 125.741 30.125C125.517 32.2083 124.96 34.0104 124.075 35.5208C123.2 37.0208 121.981 38.177 120.429 38.9791C118.887 39.7812 116.981 40.1875 114.72 40.1875Z" fill="#FFF9EF"/>
<path d="M141.009 40.1875C138.811 40.1875 136.936 39.75 135.384 38.875C133.843 37.9896 132.598 36.6979 131.655 35C130.723 33.2917 130.04 31.1979 129.613 28.7083C129.181 26.224 128.968 23.375 128.968 20.1667C128.968 15.599 129.374 11.8229 130.197 8.83333C131.03 5.83333 132.343 3.61458 134.134 2.16667C135.936 0.723959 138.244 0 141.051 0C143.244 0 145.113 0.411459 146.655 1.22917C148.207 2.05208 149.478 3.28125 150.468 4.91667C151.468 6.55729 152.202 8.64063 152.676 11.1667C153.145 13.6979 153.384 16.6615 153.384 20.0625C153.384 23.3021 153.145 26.1771 152.676 28.6875C152.202 31.1875 151.473 33.2917 150.488 35C149.514 36.6979 148.244 37.9896 146.676 38.875C145.119 39.75 143.228 40.1875 141.009 40.1875ZM141.051 33.8333C141.718 33.8333 142.301 33.5729 142.801 33.0417C143.311 32.5156 143.744 31.7083 144.093 30.625C144.452 29.5313 144.723 28.1354 144.905 26.4375C145.082 24.7292 145.176 22.7031 145.176 20.3542C145.176 17.3021 145.014 14.7396 144.697 12.6667C144.374 10.599 143.91 9.03125 143.301 7.95833C142.702 6.875 141.936 6.33333 141.009 6.33333C140.41 6.33333 139.889 6.57292 139.447 7.04167C138.999 7.5 138.613 8.26042 138.28 9.3125C137.947 10.3698 137.686 11.7813 137.509 13.5417C137.327 15.3073 137.238 17.4792 137.238 20.0625C137.238 22.7188 137.327 24.9323 137.509 26.7083C137.686 28.4896 137.947 29.9115 138.28 30.9792C138.613 32.0365 139.009 32.7813 139.468 33.2083C139.936 33.625 140.468 33.8333 141.051 33.8333Z" fill="#FFF9EF"/>
<path d="M157.651 39.4167V0.6875H165.755V39.4167H157.651ZM159.359 39.4167V32.4375H175.609V39.4167H159.359Z" fill="#FFF9EF"/>
<path d="M178.533 39.4167V0.6875H186.637V39.4167H178.533ZM180.241 39.4167V32.4375H196.491V39.4167H180.241Z" fill="#FFF9EF"/>
<path d="M197.602 27.2708V20.3541H209.393V27.2708H197.602Z" fill="#FFF9EF"/>
<path d="M212.495 39.4167V0.6875H220.599V39.4167H212.495ZM217.849 39.4167V32.8542H230.328V39.4167H217.849ZM217.849 22.75V16.6458H228.807V22.75H217.849ZM217.849 7.27083V0.6875H230.328V7.27083H217.849Z" fill="#FFF9EF"/>
<path d="M237.838 39.4167V32.8958H243.817C244.635 32.8958 245.38 32.6979 246.046 32.2917C246.713 31.875 247.286 31.1875 247.775 30.2292C248.275 29.2708 248.65 27.9688 248.9 26.3125C249.15 24.6458 249.275 22.5625 249.275 20.0625C249.275 17.3542 249.13 15.1615 248.838 13.4792C248.546 11.8021 248.119 10.5 247.567 9.58333C247.025 8.66667 246.4 8.04167 245.692 7.70833C244.994 7.375 244.239 7.20833 243.421 7.20833H237.838V0.6875H243.359C246.176 0.6875 248.64 1.44792 250.755 2.95833C252.864 4.45833 254.494 6.66146 255.65 9.5625C256.801 12.4531 257.38 15.974 257.38 20.125C257.38 23.4896 257.072 26.3125 256.463 28.6042C255.864 30.8854 255.051 32.7396 254.025 34.1667C253.01 35.599 251.906 36.6979 250.713 37.4583C249.515 38.224 248.348 38.7448 247.213 39.0208C246.088 39.2865 245.072 39.4167 244.171 39.4167H237.838ZM233.963 39.4167V0.6875H242.005V39.4167H233.963Z" fill="#FFF9EF"/>
<path d="M271.048 40.1875C268.574 40.1875 266.595 39.3229 265.111 37.5833C263.621 35.8333 262.553 33.4531 261.902 30.4375C261.262 27.4271 260.944 23.9688 260.944 20.0625C260.944 17.2865 261.132 14.6875 261.507 12.2708C261.882 9.84375 262.533 7.70833 263.465 5.875C264.408 4.03125 265.705 2.59375 267.361 1.5625C269.027 0.520833 271.152 0 273.736 0C276.08 0 277.996 0.411459 279.486 1.22917C280.97 2.05208 282.1 3.14583 282.882 4.52083C283.673 5.88542 284.142 7.41667 284.298 9.125C284.449 10.8229 284.371 12.5729 284.069 14.375L276.444 15.1875C276.595 13.8542 276.642 12.6563 276.59 11.5833C276.533 10.5 276.366 9.5625 276.09 8.77083C275.809 7.96875 275.444 7.34896 274.986 6.91667C274.538 6.48958 273.986 6.27083 273.319 6.27083C272.58 6.27083 271.934 6.5625 271.382 7.14583C270.84 7.72917 270.402 8.58333 270.069 9.70833C269.736 10.8229 269.491 12.2187 269.34 13.8958C269.184 15.5781 269.111 17.4948 269.111 19.6458C269.111 22.2708 269.205 24.5 269.402 26.3333C269.595 28.1667 269.871 29.6354 270.236 30.7292C270.611 31.8281 271.059 32.6198 271.59 33.1042C272.116 33.5938 272.694 33.8333 273.319 33.8333C274.152 33.8333 274.845 33.5104 275.402 32.8542C275.97 32.1875 276.423 31.2396 276.757 30C277.09 28.7656 277.319 27.3281 277.444 25.6875H273.444V19.9375H284.652V39.4167H279.548L279.777 28.1458H278.965C278.923 30.4948 278.663 32.5781 278.194 34.3958C277.72 36.2188 276.928 37.6406 275.819 38.6667C274.705 39.6771 273.116 40.1875 271.048 40.1875Z" fill="#FFF9EF"/>
<path d="M288.982 39.4167V0.6875H297.087V39.4167H288.982ZM294.337 39.4167V32.8542H306.816V39.4167H294.337ZM294.337 22.75V16.6458H305.295V22.75H294.337ZM294.337 7.27083V0.6875H306.816V7.27083H294.337Z" fill="#FFF9EF"/>
<path d="M114.72 86.1875C112.33 86.1875 110.325 85.7343 108.7 84.8333C107.085 83.9323 105.809 82.6198 104.866 80.8958C103.918 79.177 103.241 77.0937 102.825 74.6458C102.418 72.2031 102.22 69.4166 102.22 66.2916C102.22 63.3229 102.418 60.5937 102.825 58.1041C103.241 55.6198 103.918 53.4791 104.866 51.6875C105.809 49.8854 107.085 48.4948 108.7 47.5208C110.325 46.5364 112.33 46.0416 114.72 46.0416C116.913 46.0416 118.731 46.427 120.179 47.1875C121.622 47.9531 122.752 49.0156 123.575 50.375C124.392 51.7239 124.918 53.2864 125.158 55.0625C125.392 56.8437 125.392 58.7448 125.158 60.7708L117.595 61.6041C117.788 59.5625 117.767 57.8489 117.533 56.4583C117.293 55.0729 116.908 54.0364 116.366 53.3541C115.825 52.677 115.158 52.3333 114.366 52.3333C113.668 52.3333 113.064 52.6198 112.554 53.1875C112.038 53.7448 111.622 54.5833 111.304 55.7083C110.997 56.8229 110.752 58.2083 110.575 59.875C110.408 61.5312 110.325 63.4323 110.325 65.5833C110.325 69.1406 110.497 71.9583 110.845 74.0416C111.205 76.1145 111.7 77.5937 112.325 78.4791C112.95 79.3541 113.668 79.7916 114.491 79.7916C115.543 79.7916 116.356 79.2604 116.929 78.1875C117.497 77.1041 117.856 75.6823 118.012 73.9166C118.163 72.1562 118.142 70.2395 117.95 68.1666L125.637 69.1666C125.939 71.7083 125.976 74.0312 125.741 76.125C125.517 78.2083 124.96 80.0104 124.075 81.5208C123.2 83.0208 121.981 84.177 120.429 84.9791C118.887 85.7812 116.981 86.1875 114.72 86.1875Z" fill="#FFF9EF"/>
<path d="M141.009 86.1875C138.811 86.1875 136.936 85.75 135.384 84.875C133.843 83.9896 132.598 82.6979 131.655 81C130.723 79.2917 130.04 77.1979 129.613 74.7083C129.181 72.224 128.968 69.375 128.968 66.1667C128.968 61.599 129.374 57.8229 130.197 54.8333C131.03 51.8333 132.343 49.6146 134.134 48.1667C135.936 46.724 138.244 46 141.051 46C143.244 46 145.113 46.4115 146.655 47.2292C148.207 48.0521 149.478 49.2813 150.468 50.9167C151.468 52.5573 152.202 54.6406 152.676 57.1667C153.145 59.6979 153.384 62.6615 153.384 66.0625C153.384 69.3021 153.145 72.1771 152.676 74.6875C152.202 77.1875 151.473 79.2917 150.488 81C149.514 82.6979 148.244 83.9896 146.676 84.875C145.119 85.75 143.228 86.1875 141.009 86.1875ZM141.051 79.8333C141.718 79.8333 142.301 79.5729 142.801 79.0417C143.311 78.5156 143.744 77.7083 144.093 76.625C144.452 75.5313 144.723 74.1354 144.905 72.4375C145.082 70.7292 145.176 68.7031 145.176 66.3542C145.176 63.3021 145.014 60.7396 144.697 58.6667C144.374 56.599 143.91 55.0313 143.301 53.9583C142.702 52.875 141.936 52.3333 141.009 52.3333C140.41 52.3333 139.889 52.5729 139.447 53.0417C138.999 53.5 138.613 54.2604 138.28 55.3125C137.947 56.3698 137.686 57.7813 137.509 59.5417C137.327 61.3073 137.238 63.4792 137.238 66.0625C137.238 68.7188 137.327 70.9323 137.509 72.7083C137.686 74.4896 137.947 75.9115 138.28 76.9792C138.613 78.0365 139.009 78.7813 139.468 79.2083C139.936 79.625 140.468 79.8333 141.051 79.8333Z" fill="#FFF9EF"/>
<path d="M157.651 85.4167V46.6875H167.047L175.839 72.5625H176.318L176.026 46.6875H183.651V85.4167H174.318L165.464 58.9583H164.922L165.234 85.4167H157.651Z" fill="#FFF9EF"/>
<path d="M188.504 85.4167V46.6875H197.9L206.692 72.5625H207.171L206.879 46.6875H214.504V85.4167H205.171L196.317 58.9583H195.775L196.088 85.4167H188.504Z" fill="#FFF9EF"/>
<path d="M219.357 85.4167V46.6875H227.462V85.4167H219.357ZM224.712 85.4167V78.8542H237.191V85.4167H224.712ZM224.712 68.75V62.6458H235.67V68.75H224.712ZM224.712 53.2708V46.6875H237.191V53.2708H224.712Z" fill="#FFF9EF"/>
<path d="M252.68 86.1875C250.289 86.1875 248.284 85.7343 246.659 84.8333C245.044 83.9323 243.768 82.6198 242.826 80.8958C241.878 79.177 241.201 77.0937 240.784 74.6458C240.378 72.2031 240.18 69.4166 240.18 66.2916C240.18 63.3229 240.378 60.5937 240.784 58.1041C241.201 55.6198 241.878 53.4791 242.826 51.6875C243.768 49.8854 245.044 48.4948 246.659 47.5208C248.284 46.5364 250.289 46.0416 252.68 46.0416C254.872 46.0416 256.69 46.427 258.138 47.1875C259.581 47.9531 260.711 49.0156 261.534 50.375C262.352 51.7239 262.878 53.2864 263.117 55.0625C263.352 56.8437 263.352 58.7448 263.117 60.7708L255.555 61.6041C255.747 59.5625 255.727 57.8489 255.492 56.4583C255.253 55.0729 254.867 54.0364 254.326 53.3541C253.784 52.677 253.117 52.3333 252.326 52.3333C251.628 52.3333 251.023 52.6198 250.513 53.1875C249.997 53.7448 249.581 54.5833 249.263 55.7083C248.956 56.8229 248.711 58.2083 248.534 59.875C248.367 61.5312 248.284 63.4323 248.284 65.5833C248.284 69.1406 248.456 71.9583 248.805 74.0416C249.164 76.1145 249.659 77.5937 250.284 78.4791C250.909 79.3541 251.628 79.7916 252.451 79.7916C253.503 79.7916 254.315 79.2604 254.888 78.1875C255.456 77.1041 255.815 75.6823 255.971 73.9166C256.122 72.1562 256.102 70.2395 255.909 68.1666L263.596 69.1666C263.898 71.7083 263.935 74.0312 263.701 76.125C263.477 78.2083 262.919 80.0104 262.034 81.5208C261.159 83.0208 259.94 84.177 258.388 84.9791C256.846 85.7812 254.94 86.1875 252.68 86.1875Z" fill="#FFF9EF"/>
<path d="M272.802 85.4167V46.6875H280.844V85.4167H272.802ZM265.594 53.3333V46.6875H287.99V53.3333H265.594Z" fill="#FFF9EF"/>
<path d="M0.229899 9.10614C0.589275 3.86656 3.50073 2.65822 8.51115 2.16864C13.5216 1.67385 38.5841 2.16864 38.5841 2.16864V12.1478C38.5841 12.1478 29.8132 15.3041 30.5476 21.0332C31.2872 26.7572 34.0841 29.8041 38.5841 30.1634V40.2728L25.558 40.8613C25.6726 48.0228 20.0789 49.1582 16.2976 47.2103C12.5164 45.2676 13.5007 40.8613 13.5007 40.8613H0.229899C0.229899 40.8613 -0.145101 14.3405 0.229899 9.10614ZM57.1101 47.7988L53.6309 56.6634C56.0684 57.627 58.8862 61.3874 57.5059 66.778C56.1257 72.1634 50.3028 74.903 46.9591 73.6009L43.2143 83.1061C43.2143 83.1061 67.6934 93.6166 70.9434 94.752C74.1934 95.8874 78.6205 97.0176 81.532 90.028C84.4434 83.0124 92.6466 61.7832 92.6466 61.7832L80.7195 57.0957C80.7195 57.0957 82.3809 49.4603 78.5632 47.5124C74.7455 45.5697 70.5268 47.6114 69.1674 51.8249L57.1101 47.7988Z" fill="#FFF9EF"/>
<path d="M72.4954 1.9395C80.0735 2.16867 79.5266 7.36659 79.8079 10.2572C80.0943 13.1478 79.8079 40.8405 79.8079 40.8405H70.0162C69.735 38.4603 65.8808 31.903 58.5631 33.1478C51.2506 34.3978 51.9485 40.8405 51.9485 40.8405H42.1568V28.0437C38.2975 28.1791 34.011 24.8718 34.4225 20.8822C34.8391 16.8718 39.1152 14.3978 41.5891 15.0958L42.136 1.9395C42.136 1.9395 64.8964 1.71554 72.4954 1.9395ZM28.2037 43.7885C28.7558 47.7989 22.6881 53.7155 17.1672 52.1999C11.6464 50.6895 10.2662 43.7885 10.2662 43.7885H0.0578702C0.0578702 43.7885 -0.0723378 66.9655 0.0578702 73.3145C0.193288 79.6687 5.03183 82.4291 8.62558 82.5801C12.2141 82.7312 38.5058 81.877 38.5058 81.877L38.5839 69.3301C43.9902 69.7416 47.261 65.0541 46.5579 61.8822C45.8808 58.7051 42.7037 56.226 38.5839 56.9083C38.5839 56.9083 38.4329 44.226 38.5839 43.8093H28.2037V43.7885Z" fill="#8499FF"/>
</svg>
