<svg width="93" height="94" viewBox="0 0 93 94" fill="none" xmlns="http://www.w3.org/2000/svg">
<path d="M0.229899 7.26617C0.589275 2.02659 3.50073 0.818256 8.51115 0.328672C13.5216 -0.16612 38.5841 0.328672 38.5841 0.328672V10.3078C38.5841 10.3078 29.8132 13.4641 30.5476 19.1933C31.2872 24.9172 34.0841 27.9641 38.5841 28.3235V38.4328L25.558 39.0214C25.6726 46.1828 20.0789 47.3183 16.2976 45.3703C12.5164 43.4276 13.5007 39.0214 13.5007 39.0214H0.229899C0.229899 39.0214 -0.145101 12.5005 0.229899 7.26617ZM57.1101 45.9589L53.6309 54.8235C56.0684 55.787 58.8862 59.5474 57.5059 64.9381C56.1257 70.3235 50.3028 73.0631 46.9591 71.761L43.2143 81.2662C43.2143 81.2662 67.6934 91.7766 70.9434 92.912C74.1934 94.0474 78.6205 95.1776 81.532 88.1881C84.4434 81.1724 92.6466 59.9433 92.6466 59.9433L80.7195 55.2558C80.7195 55.2558 82.3809 47.6203 78.5632 45.6724C74.7455 43.7297 70.5268 45.7714 69.1674 49.9849L57.1101 45.9589Z" fill="#FFF9EF"/>
<path d="M72.4954 0.0995372C80.0735 0.328704 79.5266 5.52662 79.8079 8.41725C80.0943 11.3079 79.8079 39.0006 79.8079 39.0006H70.0162C69.735 36.6204 65.8808 30.0631 58.5631 31.3079C51.2506 32.5579 51.9485 39.0006 51.9485 39.0006H42.1568V26.2037C38.2975 26.3391 34.011 23.0318 34.4225 19.0422C34.8391 15.0318 39.1152 12.5579 41.5891 13.2558L42.136 0.0995372C42.136 0.0995372 64.8964 -0.124421 72.4954 0.0995372ZM28.2037 41.9485C28.7558 45.9589 22.6881 51.8756 17.1672 50.36C11.6464 48.8495 10.2662 41.9485 10.2662 41.9485H0.0578702C0.0578702 41.9485 -0.0723378 65.1256 0.0578702 71.4745C0.193288 77.8287 5.03183 80.5891 8.62558 80.7402C12.2141 80.8912 38.5058 80.037 38.5058 80.037L38.5839 67.4902C43.9902 67.9016 47.261 63.2141 46.5579 60.0422C45.8808 56.8652 42.7037 54.386 38.5839 55.0683C38.5839 55.0683 38.4329 42.386 38.5839 41.9693H28.2037V41.9485Z" fill="#8499FF"/>
</svg>
