<?xml version="1.0" encoding="UTF-8" standalone="no"?>
<!-- Created with Inkscape (http://www.inkscape.org/) -->

<svg
   xmlns:dc="http://purl.org/dc/elements/1.1/"
   xmlns:cc="http://creativecommons.org/ns#"
   xmlns:rdf="http://www.w3.org/1999/02/22-rdf-syntax-ns#"
   xmlns:svg="http://www.w3.org/2000/svg"
   xmlns="http://www.w3.org/2000/svg"
   xmlns:sodipodi="http://sodipodi.sourceforge.net/DTD/sodipodi-0.dtd"
   xmlns:inkscape="http://www.inkscape.org/namespaces/inkscape"
   width="32.515583mm"
   height="38.311626mm"
   viewBox="0 0 32.515583 38.311626"
   version="1.1"
   id="svg523"
   inkscape:version="0.92.1 r15371"
   sodipodi:docname="hindu.svg">
  <defs
     id="defs517" />
  <sodipodi:namedview
     id="base"
     pagecolor="#ffffff"
     bordercolor="#666666"
     borderopacity="1.0"
     inkscape:pageopacity="0.0"
     inkscape:pageshadow="2"
     inkscape:zoom="2.8"
     inkscape:cx="115.9276"
     inkscape:cy="86.041054"
     inkscape:document-units="mm"
     inkscape:current-layer="layer1"
     showgrid="false"
     fit-margin-top="0"
     fit-margin-left="0"
     fit-margin-right="0"
     fit-margin-bottom="0"
     inkscape:window-width="1600"
     inkscape:window-height="838"
     inkscape:window-x="-8"
     inkscape:window-y="-8"
     inkscape:window-maximized="1" />
  <metadata
     id="metadata520">
    <rdf:RDF>
      <cc:Work
         rdf:about="">
        <dc:format>image/svg+xml</dc:format>
        <dc:type
           rdf:resource="http://purl.org/dc/dcmitype/StillImage" />
        <dc:title></dc:title>
      </cc:Work>
    </rdf:RDF>
  </metadata>
  <g
     inkscape:label="Layer 1"
     inkscape:groupmode="layer"
     id="layer1"
     transform="translate(-42.706494,-41.231095)">
    <path
       d="M 47.757938,43.1283 H 70.544347 V 54.268317 L 69.163963,63.490598 58.789052,72.423601 50.26774,64.512807 47.192329,55.263714 Z"
       style="fill:#fefefe;fill-opacity:1;fill-rule:evenodd;stroke:none;stroke-width:0.35277775"
       id="path110"
       inkscape:connector-curvature="0" />
    <g
       id="g112"
       transform="matrix(1.1565149,0,0,-1.1565149,-96.736448,297.455)">
      <path
         d="m 124.9396,219.9076 19.8754,-0.0468 -0.3283,-8.5785 -20.2501,-0.0468 z"
         style="fill:none;stroke:#373435;stroke-width:0.1772;stroke-linecap:butt;stroke-linejoin:miter;stroke-miterlimit:2.61312604;stroke-dasharray:none;stroke-opacity:1"
         id="path114"
         inkscape:connector-curvature="0" />
    </g>
    <path
       d="m 47.758044,43.128406 22.986188,0.05412 -0.379696,9.921169 -23.419574,0.05412 z"
       style="fill:#d1c1b7;fill-opacity:1;fill-rule:evenodd;stroke:none;stroke-width:0.35277775"
       id="path116"
       inkscape:connector-curvature="0" />
    <g
       id="g118"
       transform="matrix(0.13013972,-0.38627402,-0.38686669,-0.1303408,-96.736448,297.455)">
      <path
         d="m 653.4799,-167.3683 1.1787,5.1163 c 0.197,-1.5744 1.1945,-2.8225 2.0279,-4.2616 0.847,-1.4613 2.1776,-4.61 2.7195,-6.7388 0.6795,-2.5897 0.4573,-5.1863 1.1557,-7.1782 0.8096,-2.3116 2.1121,-3.9954 3.2159,-6.482 1.8066,-3.8015 1.5838,-7.5084 2.7369,-10.3796 l -3.9005,2.6603 c -0.1375,3.3781 -1.9156,7.3758 -3.4724,10.2765 -1.1815,2.6736 -2.0999,5.1338 -2.3261,8.2363 -0.254,2.2601 -0.9632,4.434 -2.1022,6.5296 -0.4402,0.7237 -0.8555,1.4618 -1.2334,2.2212 z"
         style="fill:#96989a;fill-opacity:1;fill-rule:evenodd;stroke:#606062;stroke-width:0.28349999;stroke-linecap:butt;stroke-linejoin:miter;stroke-miterlimit:2.61312604;stroke-dasharray:none;stroke-opacity:1"
         id="path120"
         inkscape:connector-curvature="0" />
    </g>
    <g
       id="g122"
       transform="matrix(0,0.410972,0.40902467,0,-96.736448,297.455)">
      <path
         d="m -588.3386,409.9122 c 0.1318,0.0479 0.2658,0.0907 0.4028,0.1292 3.0274,0.8496 6.1863,-0.9383 7.0316,-3.9798 0.3512,-1.2623 0.6928,-4.1604 0.6191,-7.1266 -0.1043,-4.1477 -1.412,-5.9221 -1.4239,-9.0921 -0.006,-1.5004 -2.6835,-14.6659 -1.2787,-16.547 0.3328,-0.445 0.8002,-1.5075 0.9244,-3.1819 0.2171,-2.9151 1.5863,-3.7301 1.4848,-7.1056 -0.1284,-4.2763 -0.2855,-7.2187 -0.4085,-8.5445 -0.138,-1.495 -1.4652,-2.601 -2.9528,-2.4624 -0.5953,0.0564 -1.1291,0.3022 -1.5452,0.6741 0.4921,0.4436 0.2724,0.8801 0.3373,1.5905 0.1219,1.3249 0.5927,4.1845 0.555,8.5992 -0.0357,4.17 -1.0856,4.3336 -1.3019,7.2487 -0.125,1.6744 3.5498,3.138 3.2173,3.5836 -1.4031,1.881 -2.8687,14.6449 -2.863,16.1453 0.0111,3.1688 1.3193,4.9444 1.4233,9.0921 0.0743,2.9662 -0.2676,5.8643 -0.6191,7.1266 -0.5193,1.8629 -1.908,3.2527 -3.6025,3.8506 z"
         style="fill:#96989a;fill-opacity:1;fill-rule:evenodd;stroke:#606062;stroke-width:0.28290001;stroke-linecap:butt;stroke-linejoin:miter;stroke-miterlimit:2.61312604;stroke-dasharray:none;stroke-opacity:1"
         id="path124"
         inkscape:connector-curvature="0" />
    </g>
    <g
       id="g126"
       transform="matrix(0.13013972,-0.38627402,-0.38686669,-0.1303408,-96.736448,297.455)">
      <path
         d="m 664.3145,-149.7368 c -0.3152,-0.4943 -0.4357,-1.1143 -0.2826,-1.7257 0.3232,-1.2949 2.194,-3.8157 3.0294,-8.0008 0.479,-2.4069 2.2292,-3.7094 3.4021,-6.3958 0.6744,-1.5443 1.4738,-2.3981 1.9381,-2.713 1.9652,-1.3272 3.7689,-14.6407 4.2605,-16.0617 1.0386,-3.001 0.3764,-5.0998 1.6517,-9.0578 0.9116,-2.8281 2.1986,-5.4593 2.9512,-6.5407 0.6392,-0.9187 1.5003,-1.5967 2.4613,-2.0126 -1.9026,-1.0063 -4.3132,-0.4566 -5.5732,1.3504 -0.7535,1.0815 -1.8848,3.7591 -2.7964,6.5869 -1.2759,3.9569 -0.7693,6.0103 -1.8071,9.0119 -0.4912,1.421 -2.2949,14.7345 -4.2599,16.0611 -0.466,0.3147 -1.4836,1.0715 -2.1563,2.6147 -1.1736,2.6878 -2.7043,4.0881 -3.1856,6.4936 -0.8348,4.1859 -2.7045,6.7068 -3.0282,8.0011 -0.2977,1.1888 0.4308,2.4001 1.6214,2.6971 0.6313,0.1571 1.2693,0.027 1.7736,-0.3087 z"
         style="fill:#96989a;fill-opacity:1;fill-rule:evenodd;stroke:#606062;stroke-width:0.28349999;stroke-linecap:butt;stroke-linejoin:miter;stroke-miterlimit:2.61312604;stroke-dasharray:none;stroke-opacity:1"
         id="path128"
         inkscape:connector-curvature="0" />
    </g>
    <g
       id="g130"
       transform="matrix(0.13013972,-0.38627402,-0.38686669,-0.1303408,-96.736448,297.455)">
      <path
         d="m 672.2408,-202.6928 c -0.7535,1.0815 -2.0396,3.7131 -2.9515,6.5407 -1.275,3.958 -0.7064,6.3672 -1.7441,9.3696 -0.2739,0.794 -2.0333,4.811 -3.0374,8.5825 -0.7905,2.9662 -0.7506,5.8504 -1.6149,6.4349 -0.4631,0.3141 -1.0519,1.6614 -1.7248,3.2054 -1.1739,2.687 -3.1644,4.7019 -3.6443,7.1079 -0.835,4.1851 -2.9296,3.7701 -1.6455,4.2021 l 3.3194,1.1168 c 1.2835,0.4318 0.8101,-0.0172 1.6455,-4.2023 0.4796,-2.4061 2.4704,-4.4209 3.6442,-7.1079 0.673,-1.544 1.2617,-2.8913 1.7249,-3.2051 0.8751,-0.5922 1.5046,-3.498 2.3012,-6.5052 0.9904,-3.7438 2.0795,-7.7253 2.351,-8.5125 1.0384,-3.0016 0.4689,-5.4113 1.7442,-9.3696 0.9116,-2.8276 2.198,-5.4593 2.9514,-6.5407 z"
         style="fill:#96989a;fill-opacity:1;fill-rule:evenodd;stroke:#606062;stroke-width:0.28349999;stroke-linecap:butt;stroke-linejoin:miter;stroke-miterlimit:2.61312604;stroke-dasharray:none;stroke-opacity:1"
         id="path132"
         inkscape:connector-curvature="0" />
    </g>
    <g
       id="g134"
       transform="matrix(0,0.410972,0.40902467,0,-96.736448,297.455)">
      <path
         d="m -547.4412,380.2269 c -0.1148,0.8388 -9.9012,-12.2477 -10.0846,-11.4228 -0.4067,2.344 -0.3832,4.6262 0.0947,6.8443 0.5576,2.7805 0.6885,5.6265 0.4261,8.532 -0.4292,2.5571 -0.8799,5.1157 -0.5871,7.6734 0.0777,0.6797 9.953,-12.3078 10.1509,-11.6269 z"
         style="fill:#96989a;fill-opacity:1;fill-rule:evenodd;stroke:#606062;stroke-width:0.28290001;stroke-linecap:butt;stroke-linejoin:miter;stroke-miterlimit:2.61312604;stroke-dasharray:none;stroke-opacity:1"
         id="path136"
         inkscape:connector-curvature="0" />
    </g>
    <g
       id="g138"
       transform="matrix(0.84224987,0,0,-0.86105294,-96.736448,297.455)">
      <path
         d="M 197.7525,283.8291 H 171.9714"
         style="fill:none;stroke:#373435;stroke-width:0.2378;stroke-linecap:butt;stroke-linejoin:miter;stroke-miterlimit:2.61312604;stroke-dasharray:none;stroke-opacity:1"
         id="path140"
         inkscape:connector-curvature="0" />
    </g>
    <g
       id="g142"
       transform="matrix(0,0.85252629,0.84840585,0,-96.736448,297.455)">
      <path
         d="m -265.805,182.5948 0.3419,2.1563 -9.5647,-0.7659 c -0.2395,-0.4172 -0.0374,-0.464 -0.2047,-0.9354 l 0.4354,-0.6256 z"
         style="fill:#f58634;fill-opacity:1;fill-rule:evenodd;stroke:#373435;stroke-width:0.1363;stroke-linecap:butt;stroke-linejoin:miter;stroke-miterlimit:2.61312604;stroke-dasharray:none;stroke-opacity:1"
         id="path144"
         inkscape:connector-curvature="0" />
    </g>
    <g
       id="g146"
       transform="matrix(-0.43662952,0,0,-0.43837929,-96.736448,297.455)">
      <path
         d="m -385.5481,527.6835 c 3.7823,-5.2555 8.2593,-10.0778 13.375,-14.4998 -1.9165,-2.1668 -3.8333,-4.3336 -5.7498,-6.5004 -4.6551,3.9271 -8.5093,7.9092 -12.3718,12.3355 1.8754,-0.125 3.4653,-0.398 5.3719,-0.0853 -0.3713,2.9078 -0.6698,5.925 -0.6253,8.75 z"
         style="fill:#00a859;fill-opacity:1;fill-rule:evenodd;stroke:#373435;stroke-width:0.4691;stroke-linecap:butt;stroke-linejoin:miter;stroke-miterlimit:2.61312604;stroke-dasharray:none;stroke-opacity:1"
         id="path148"
         inkscape:connector-curvature="0" />
    </g>
    <g
       id="g150"
       transform="matrix(0.43662952,0,0,-0.43837929,-96.736448,297.455)">
      <path
         d="m 372.1731,513.1837 6.4429,1.4709"
         style="fill:none;stroke:#373435;stroke-width:0.4691;stroke-linecap:butt;stroke-linejoin:miter;stroke-miterlimit:2.61312604;stroke-dasharray:none;stroke-opacity:1"
         id="path152"
         inkscape:connector-curvature="0" />
    </g>
    <g
       id="g154"
       transform="matrix(0.43662952,0,0,-0.43837929,-96.736448,297.455)">
      <path
         d="m 327.9197,527.6835 c 3.782,-5.2555 8.2591,-10.0778 13.375,-14.4998 -1.9165,-2.1668 -3.8333,-4.3336 -5.7498,-6.5004 -4.6553,3.9271 -8.5093,7.9092 -12.3718,12.3355 1.8752,-0.125 3.4654,-0.398 5.3717,-0.0853 -0.3711,2.9078 -0.6696,5.925 -0.6251,8.75 z"
         style="fill:#00a859;fill-opacity:1;fill-rule:evenodd;stroke:#373435;stroke-width:0.4691;stroke-linecap:butt;stroke-linejoin:miter;stroke-miterlimit:2.61312604;stroke-dasharray:none;stroke-opacity:1"
         id="path156"
         inkscape:connector-curvature="0" />
    </g>
    <g
       id="g158"
       transform="matrix(-0.43662952,0,0,-0.43837929,-96.736448,297.455)">
      <path
         d="m -341.2947,513.1837 7.2929,1.9808"
         style="fill:none;stroke:#373435;stroke-width:0.4691;stroke-linecap:butt;stroke-linejoin:miter;stroke-miterlimit:2.61312604;stroke-dasharray:none;stroke-opacity:1"
         id="path160"
         inkscape:connector-curvature="0" />
    </g>
    <g
       id="g162"
       transform="matrix(0.43662952,0,0,-0.43837929,-96.736448,297.455)">
      <path
         d="m 329.2517,507.9146 c 17.769,-14.1525 35.9598,-14.0771 54.563,-0.0623 -1.8544,2.3539 -3.4149,4.3656 -5.269,6.7198 -14.2912,-11.5954 -29.3378,-11.103 -44.5439,0.5924 -1.5835,-2.4165 -3.1669,-4.8333 -4.7501,-7.2499 z"
         style="fill:#00a859;fill-opacity:1;fill-rule:evenodd;stroke:#373435;stroke-width:0.4691;stroke-linecap:butt;stroke-linejoin:miter;stroke-miterlimit:2.61312604;stroke-dasharray:none;stroke-opacity:1"
         id="path164"
         inkscape:connector-curvature="0" />
    </g>
    <path
       d="m 49.225247,75.011404 0.980016,-1.501601 0.453672,0.298416 -0.400191,1.200502 0.933203,-0.849805 0.45459,0.299085 -0.979876,1.501598 -0.279929,-0.184185 0.770431,-1.182793 -1.066306,0.988095 -0.291006,-0.191419 0.477908,-1.375198 -0.772618,1.181523 z m 2.556792,-0.485601 0.322615,0.164994 -0.44002,0.866812 c -0.06988,0.137795 -0.110984,0.228881 -0.124001,0.273402 -0.0194,0.0726 -0.0139,0.141888 0.01722,0.207505 0.03129,0.06629 0.09151,0.121883 0.180305,0.167286 0.0901,0.04621 0.167887,0.06251 0.233009,0.04851 0.06488,-0.0141 0.115782,-0.046 0.152683,-0.09588 0.03711,-0.05002 0.08781,-0.138006 0.152117,-0.264514 l 0.449474,-0.885402 0.32251,0.164994 -0.426791,0.841095 c -0.09761,0.192122 -0.175119,0.323707 -0.232904,0.394123 -0.05761,0.07038 -0.123401,0.121073 -0.19812,0.151977 -0.07398,0.0308 -0.158185,0.04212 -0.252482,0.03471 -0.09469,-0.0076 -0.204718,-0.04322 -0.330412,-0.107598 -0.151695,-0.07761 -0.257598,-0.153916 -0.317994,-0.229306 -0.06029,-0.07539 -0.09888,-0.152998 -0.115993,-0.232903 -0.01662,-0.0798 -0.01651,-0.153881 3.43e-4,-0.223485 0.0254,-0.102412 0.08389,-0.243099 0.174802,-0.422204 l 0.433493,-0.854112 z m 0.936413,1.842701 0.337679,0.106186 c -0.0266,0.117123 -0.02117,0.213431 0.01651,0.289912 0.03771,0.07641 0.106997,0.135995 0.207609,0.179001 0.10661,0.04551 0.196603,0.05722 0.269911,0.03499 0.0732,-0.02241 0.122801,-0.06389 0.14859,-0.124706 0.01651,-0.03909 0.01908,-0.07719 0.0083,-0.114478 -0.01118,-0.037 -0.04078,-0.07782 -0.08911,-0.121989 -0.03277,-0.03041 -0.110666,-0.09183 -0.233997,-0.185314 -0.158397,-0.120509 -0.259786,-0.228108 -0.303671,-0.323709 -0.06212,-0.134303 -0.06523,-0.2667 -0.0097,-0.397899 0.0357,-0.0841 0.09289,-0.153281 0.171204,-0.206481 0.07867,-0.0532 0.170391,-0.0799 0.275978,-0.08012 0.10541,-2.65e-4 0.220909,0.02622 0.347098,0.08019 0.205916,0.08781 0.341418,0.199708 0.406223,0.336021 0.06548,0.136385 0.06798,0.282011 0.0084,0.437692 l -0.338208,-0.13081 c 0.02209,-0.09148 0.01771,-0.165489 -0.01291,-0.222673 -0.03048,-0.05701 -0.09218,-0.105622 -0.184891,-0.145309 -0.09571,-0.04082 -0.179317,-0.05292 -0.250296,-0.03602 -0.04572,0.0109 -0.07782,0.03761 -0.0961,0.08072 -0.01672,0.0393 -0.01432,0.07969 0.0069,0.121602 0.0266,0.05348 0.112501,0.133702 0.257423,0.240983 0.145203,0.106926 0.247297,0.197908 0.306881,0.271603 0.06001,0.07412 0.09701,0.155823 0.110525,0.245499 0.01337,0.08971 -0.0018,0.186795 -0.046,0.291007 -0.04011,0.09472 -0.103928,0.172191 -0.191417,0.232407 -0.08738,0.0604 -0.187396,0.09038 -0.300002,0.0895 -0.112889,-7.94e-4 -0.240913,-0.03161 -0.383788,-0.09271 -0.207891,-0.08869 -0.347309,-0.205105 -0.417724,-0.349179 -0.07087,-0.143827 -0.07747,-0.31242 -0.02138,-0.505918 z m 1.394883,1.180606 0.555519,-1.706317 0.343888,0.112924 -0.555096,1.70628 z m 1.950614,-0.135821 0.314995,0.186515 c -0.098,0.179705 -0.219004,0.301413 -0.362691,0.365794 -0.143721,0.06382 -0.308715,0.07352 -0.495194,0.02872 -0.231104,-0.05549 -0.402096,-0.180409 -0.513221,-0.374791 -0.110807,-0.194132 -0.133597,-0.428625 -0.06798,-0.703826 0.06928,-0.290584 0.197873,-0.498475 0.385692,-0.623604 0.187607,-0.124989 0.403613,-0.158187 0.647382,-0.09959 0.212902,0.05119 0.370699,0.15621 0.473111,0.314393 0.06149,0.09381 0.09511,0.215302 0.101318,0.365125 l -0.367101,-7.93e-4 c 0.0011,-0.09522 -0.02491,-0.177131 -0.07751,-0.245004 -0.05309,-0.06823 -0.126401,-0.113419 -0.219499,-0.135716 -0.12901,-0.03111 -0.245004,-0.0099 -0.347309,0.06389 -0.102518,0.07331 -0.178612,0.21403 -0.228106,0.422098 -0.05239,0.22031 -0.05031,0.386998 0.0063,0.499499 0.05697,0.112924 0.14859,0.184502 0.275308,0.21491 0.09349,0.02241 0.181187,0.01209 0.262467,-0.0314 0.08153,-0.04371 0.152329,-0.125484 0.212019,-0.246417 z m 1.165507,0.01183 c 0.01619,-0.182316 0.0574,-0.333092 0.122802,-0.452014 0.04847,-0.08759 0.111301,-0.164499 0.187995,-0.230574 0.07638,-0.06622 0.15801,-0.112924 0.244511,-0.140724 0.115076,-0.03697 0.245392,-0.04907 0.390489,-0.03598 0.26289,0.02371 0.465209,0.124706 0.608577,0.302506 0.142699,0.178189 0.201013,0.412996 0.174802,0.704885 -0.0259,0.289102 -0.12439,0.508494 -0.295275,0.657402 -0.171098,0.149508 -0.387809,0.21209 -0.649111,0.188418 -0.265113,-0.02381 -0.468701,-0.124212 -0.610412,-0.301025 -0.141781,-0.176284 -0.199989,-0.407387 -0.174378,-0.692891 z m 0.371581,0.02141 c -0.01799,0.202671 0.01492,0.360574 0.09881,0.473887 0.08389,0.11289 0.197697,0.176107 0.341313,0.188984 0.143686,0.01302 0.26617,-0.0284 0.36777,-0.123684 0.10153,-0.09581 0.161396,-0.247087 0.180129,-0.454801 0.01827,-0.205316 -0.01281,-0.362407 -0.09373,-0.47131 -0.0804,-0.109291 -0.194875,-0.170392 -0.343676,-0.183798 -0.148414,-0.01347 -0.272804,0.02681 -0.37271,0.120721 -0.100013,0.09419 -0.159491,0.243981 -0.177906,0.450001 z m 1.566721,1.018789 -0.08661,-1.792994 1.227207,-0.0599 0.0145,0.303107 -0.865505,0.04209 0.02071,0.425802 0.7481,-0.03651 0.01478,0.302895 -0.748312,0.03651 0.0369,0.7614 z m 2.608898,-0.262398 -0.306106,-1.459794 -0.518089,0.109504 -0.06223,-0.296897 1.388004,-0.293513 0.0623,0.297005 -0.515585,0.109008 0.306211,1.459582 z m 1.103277,-0.232622 -0.512974,-1.719789 0.72838,-0.2189 c 0.183198,-0.0551 0.320816,-0.07948 0.412997,-0.07369 0.0925,0.0059 0.175119,0.04089 0.248426,0.104597 0.07348,0.06431 0.125483,0.147003 0.155893,0.248603 0.03849,0.129188 0.0327,0.246909 -0.0175,0.353695 -0.0502,0.106823 -0.146897,0.193394 -0.290301,0.260493 0.08749,0.0213 0.163407,0.0508 0.227189,0.08872 0.06431,0.03789 0.157515,0.111477 0.279506,0.22038 l 0.308892,0.272698 -0.413491,0.124317 -0.359904,-0.300919 c -0.128693,-0.10668 -0.2147,-0.172402 -0.258304,-0.197273 -0.0429,-0.02453 -0.0847,-0.03803 -0.125306,-0.0399 -0.04078,-0.0019 -0.100895,0.0095 -0.180693,0.03348 l -0.07031,0.02098 0.214207,0.718219 z m 0.05091,-1.09629 0.256116,-0.07697 c 0.165806,-0.04981 0.266806,-0.08802 0.304307,-0.114618 0.03679,-0.02627 0.06219,-0.0605 0.075,-0.101989 0.0133,-0.04152 0.01199,-0.08812 -0.0032,-0.1397 -0.0175,-0.0581 -0.04681,-0.09991 -0.08841,-0.126717 -0.0412,-0.02638 -0.0914,-0.0357 -0.150001,-0.02808 -0.02949,0.0044 -0.114088,0.0278 -0.254106,0.06989 l -0.269875,0.08121 0.130281,0.436986 z m 0.906991,-1.080101 0.327519,-0.154797 0.412397,0.880391 c 0.06562,0.139805 0.112008,0.228319 0.139207,0.265819 0.0453,0.06001 0.102976,0.098 0.173778,0.113699 0.07151,0.0158 0.152012,0.0021 0.242323,-0.04039 0.09147,-0.04322 0.151977,-0.095 0.180799,-0.155223 0.02879,-0.06018 0.03489,-0.119981 0.0182,-0.179989 -0.01672,-0.0599 -0.05472,-0.154305 -0.115006,-0.282715 l -0.42111,-0.8993 0.327519,-0.154694 0.400085,0.854321 c 0.09151,0.195088 0.147496,0.337079 0.167605,0.426191 0.02,0.08869 0.01951,0.172085 -0.0018,0.250084 -0.02099,0.07783 -0.06371,0.151625 -0.127494,0.221827 -0.06399,0.07038 -0.159491,0.13589 -0.287196,0.196075 -0.154023,0.07281 -0.279012,0.109995 -0.375321,0.111723 -0.0962,0.0019 -0.181081,-0.01521 -0.25407,-0.0508 -0.07352,-0.03563 -0.131622,-0.08121 -0.17593,-0.137303 -0.06477,-0.08301 -0.139877,-0.215511 -0.225073,-0.39751 l -0.406329,-0.86741 z m 2.733005,0.661318 -0.731696,-1.298291 -0.460799,0.261688 -0.148695,-0.264088 1.23451,-0.701323 0.148908,0.264091 -0.458612,0.260524 0.731485,1.298401 z m 0.971409,-0.560493 -0.949501,-1.521108 0.306705,-0.193003 0.374085,0.599085 0.596618,-0.375602 -0.373909,-0.59898 0.306917,-0.193111 0.949501,1.521002 -0.306917,0.193109 -0.415008,-0.664914 -0.596688,0.375497 0.415008,0.664914 z"
       style="fill:#fcba71;fill-opacity:1;fill-rule:nonzero;stroke:none;stroke-width:0.35277775"
       id="path166"
       inkscape:connector-curvature="0" />
    <g
       id="g168"
       transform="matrix(0,0.97319745,0.96858664,0,-96.736448,297.455)">
      <path
         d="m -251.9371,157.769 -1.1472,-8.7273"
         style="fill:none;stroke:#373435;stroke-width:0.2115;stroke-linecap:round;stroke-linejoin:round;stroke-miterlimit:2.61312604;stroke-dasharray:none;stroke-opacity:1"
         id="path170"
         inkscape:connector-curvature="0" />
    </g>
    <g
       id="g172"
       transform="matrix(0,0.97319745,0.96858664,0,-96.736448,297.455)">
      <path
         d="m -252.4887,158.0128 -2.8721,-8.5088"
         style="fill:none;stroke:#373435;stroke-width:0.2115;stroke-linecap:round;stroke-linejoin:round;stroke-miterlimit:2.61312604;stroke-dasharray:none;stroke-opacity:1"
         id="path174"
         inkscape:connector-curvature="0" />
    </g>
    <g
       id="g176"
       transform="matrix(0,0.97319745,0.96858664,0,-96.736448,297.455)">
      <path
         d="m -252.9814,158.3592 -4.7324,-8.121"
         style="fill:none;stroke:#373435;stroke-width:0.2115;stroke-linecap:round;stroke-linejoin:round;stroke-miterlimit:2.61312604;stroke-dasharray:none;stroke-opacity:1"
         id="path178"
         inkscape:connector-curvature="0" />
    </g>
    <g
       id="g180"
       transform="matrix(0,0.97319745,0.96858664,0,-96.736448,297.455)">
      <path
         d="m -253.3958,158.7943 -6.2019,-7.052"
         style="fill:none;stroke:#373435;stroke-width:0.2115;stroke-linecap:round;stroke-linejoin:round;stroke-miterlimit:2.61312604;stroke-dasharray:none;stroke-opacity:1"
         id="path182"
         inkscape:connector-curvature="0" />
    </g>
    <g
       id="g184"
       transform="matrix(0,0.97319745,0.96858664,0,-96.736448,297.455)">
      <path
         d="m -253.7164,159.3014 -7.0356,-5.3716"
         style="fill:none;stroke:#373435;stroke-width:0.2115;stroke-linecap:round;stroke-linejoin:round;stroke-miterlimit:2.61312604;stroke-dasharray:none;stroke-opacity:1"
         id="path186"
         inkscape:connector-curvature="0" />
    </g>
    <g
       id="g188"
       transform="matrix(0,0.97319745,0.96858664,0,-96.736448,297.455)">
      <path
         d="m -253.9304,159.8607 -7.5597,-3.7063"
         style="fill:none;stroke:#373435;stroke-width:0.2115;stroke-linecap:round;stroke-linejoin:round;stroke-miterlimit:2.61312604;stroke-dasharray:none;stroke-opacity:1"
         id="path190"
         inkscape:connector-curvature="0" />
    </g>
    <g
       id="g192"
       transform="matrix(0,0.97319745,0.96858664,0,-96.736448,297.455)">
      <path
         d="m -254.0296,160.4506 -7.2193,-1.9219"
         style="fill:none;stroke:#373435;stroke-width:0.2115;stroke-linecap:round;stroke-linejoin:round;stroke-miterlimit:2.61312604;stroke-dasharray:none;stroke-opacity:1"
         id="path194"
         inkscape:connector-curvature="0" />
    </g>
    <g
       id="g196"
       transform="matrix(0,0.8812671,0.96858664,0,-96.736448,297.455)">
      <path
         d="m -280.4771,160.9237 -8.5136,-0.0868"
         style="fill:none;stroke:#373435;stroke-width:0.2115;stroke-linecap:round;stroke-linejoin:round;stroke-miterlimit:2.61312604;stroke-dasharray:none;stroke-opacity:1"
         id="path198"
         inkscape:connector-curvature="0" />
    </g>
    <g
       id="g200"
       transform="matrix(0,0.97319745,-0.96858664,0,-96.736448,297.455)">
      <path
         d="m -253.9304,-161.5391 -7.2266,-3.5433"
         style="fill:none;stroke:#373435;stroke-width:0.2115;stroke-linecap:round;stroke-linejoin:round;stroke-miterlimit:2.61312604;stroke-dasharray:none;stroke-opacity:1"
         id="path202"
         inkscape:connector-curvature="0" />
    </g>
    <g
       id="g204"
       transform="matrix(0,0.97319745,-0.96858664,0,-96.736448,297.455)">
      <path
         d="m -254.0296,-160.9489 -7.2213,-1.9228"
         style="fill:none;stroke:#373435;stroke-width:0.2115;stroke-linecap:round;stroke-linejoin:round;stroke-miterlimit:2.61312604;stroke-dasharray:none;stroke-opacity:1"
         id="path206"
         inkscape:connector-curvature="0" />
    </g>
    <g
       id="g208"
       transform="matrix(0,0.97319745,-0.96858664,0,-96.736448,297.455)">
      <path
         d="m -251.9371,-163.7314 -1.1472,-8.7276"
         style="fill:none;stroke:#373435;stroke-width:0.2115;stroke-linecap:round;stroke-linejoin:round;stroke-miterlimit:2.61312604;stroke-dasharray:none;stroke-opacity:1"
         id="path210"
         inkscape:connector-curvature="0" />
    </g>
    <g
       id="g212"
       transform="matrix(0,0.97319745,-0.96858664,0,-96.736448,297.455)">
      <path
         d="m -252.4887,-163.4876 -2.8721,-8.5088"
         style="fill:none;stroke:#373435;stroke-width:0.2115;stroke-linecap:round;stroke-linejoin:round;stroke-miterlimit:2.61312604;stroke-dasharray:none;stroke-opacity:1"
         id="path214"
         inkscape:connector-curvature="0" />
    </g>
    <g
       id="g216"
       transform="matrix(0,0.97319745,-0.96858664,0,-96.736448,297.455)">
      <path
         d="m -252.9814,-163.1412 -4.7324,-8.121"
         style="fill:none;stroke:#373435;stroke-width:0.2115;stroke-linecap:round;stroke-linejoin:round;stroke-miterlimit:2.61312604;stroke-dasharray:none;stroke-opacity:1"
         id="path218"
         inkscape:connector-curvature="0" />
    </g>
    <g
       id="g220"
       transform="matrix(0,0.97319745,-0.96858664,0,-96.736448,297.455)">
      <path
         d="m -253.3958,-162.7061 -6.2019,-7.0523"
         style="fill:none;stroke:#373435;stroke-width:0.2115;stroke-linecap:round;stroke-linejoin:round;stroke-miterlimit:2.61312604;stroke-dasharray:none;stroke-opacity:1"
         id="path222"
         inkscape:connector-curvature="0" />
    </g>
    <g
       id="g224"
       transform="matrix(0,0.97319745,-0.96858664,0,-96.736448,297.455)">
      <path
         d="m -253.7164,-162.1993 -7.0356,-5.3713"
         style="fill:none;stroke:#373435;stroke-width:0.2115;stroke-linecap:round;stroke-linejoin:round;stroke-miterlimit:2.61312604;stroke-dasharray:none;stroke-opacity:1"
         id="path226"
         inkscape:connector-curvature="0" />
    </g>
    <g
       id="g228"
       transform="matrix(0,0.85244514,0.84840585,0,-96.736448,297.455)">
      <path
         d="m -286.6958,188.4764 v -10.917 c -6.5588,0.8186 -6.0624,10.33 0,10.917 z"
         style="fill:none;stroke:#373435;stroke-width:0.24150001;stroke-linecap:butt;stroke-linejoin:miter;stroke-miterlimit:2.61312604;stroke-dasharray:none;stroke-opacity:1"
         id="path230"
         inkscape:connector-curvature="0" />
    </g>
    <path
       d="m 63.168047,53.063122 h -9.26211 c 0.694725,-5.591105 8.764199,-5.168124 9.26211,0"
       style="fill:#fbb33c;fill-opacity:1;fill-rule:evenodd;stroke:none;stroke-width:0.35277775"
       id="path232"
       inkscape:connector-curvature="0" />
    <path
       d="m 60.204149,63.288491 c 0.715998,0.256505 1.449599,0.496923 2.377687,0.556225 1.156617,0.01598 1.474893,-0.32392 1.730728,-0.804404 -0.71113,-0.712399 -1.400211,-0.899301 -2.269914,-1.179618 0.915,-0.510082 1.7526,-1.120599 2.470785,-1.88468 0.107915,-0.162489 0.182316,-0.449792 0.290195,-0.612422 -0.809096,0.132115 -1.584501,0.388514 -2.39328,0.5207 1.138979,-0.669185 1.458313,-2.044383 1.04648,-4.04809 -0.682801,0.175119 -1.118799,0.586705 -1.493484,1.058122 -0.04339,-0.546418 -0.08671,-1.092518 -0.129893,-1.638724 -0.397122,0.111408 -0.71561,0.32191 -0.97469,0.607519 0.186867,-0.465914 0.264584,-0.93151 0.243382,-1.397 -0.658001,0.139382 -1.151396,0.481683 -1.645497,0.823771 -0.256116,-0.269099 -0.563104,-0.563068 -0.818903,-0.832167 -0.230787,0.334398 -0.409787,0.693279 -0.640503,1.027677 -0.382694,-0.25901 -0.969398,-0.720901 -1.14808,-0.776394 -0.178717,-0.055 -0.633801,0.935285 -0.684918,0.839718 -0.0508,-0.09613 -1.47059,-0.747501 -1.43129,-0.517702 0.454589,0.750499 0.577991,1.488299 0.866775,2.232801 -0.64389,-1.123103 -1.369272,-1.321717 -2.041384,-1.314203 0.822819,0.639904 0.02649,3.655589 1.720497,6.183171 -0.682484,0.246804 -1.268483,0.779604 -1.639182,1.454221 1.313886,0.721607 2.778584,0.600004 4.394482,-0.366219 0.204188,-0.134585 0.408905,-0.269381 0.612987,-0.404495 0.519113,0.15741 1.038013,0.314713 1.55702,0.472193"
       style="fill:#f58634;fill-opacity:1;fill-rule:evenodd;stroke:none;stroke-width:0.35277775"
       id="path234"
       inkscape:connector-curvature="0" />
    <g
       id="g236"
       transform="matrix(0,0.44709644,0.44764677,0,-96.736448,297.455)">
      <path
         d="m -526.2763,339.6246 c -6.166,-4.0088 -11.7984,-1.7847 -13.8768,-3.9586 -0.6664,4.2213 5.5786,6.5097 13.4918,7.9021 m -6.2232,17.6602 c 2.6306,-1.0143 4.4754,-4.0165 6.2717,-7.0963 m -14.2214,0.2149 c 2.5361,-4.2962 10.6205,-1.1645 13.5504,-6.742 -4.9572,7.2017 -3.8078,8.5201 -5.6007,13.6234 2.9486,-3.5156 5.0301,-8.1545 6.2586,-13.7526 m -11.3677,6.8975 c -1.1946,0.8119 -1.9945,2.1031 -2.4248,3.4815 5.0295,1.0503 7.4478,-0.1885 8.9272,-2.2544 0.7985,-1.6866 1.116,-3.2901 2.141,-4.799 m 6.2676,-14.8765 c -2.7442,8.634 -2.5265,16.8043 -1.288,23.7966 m -15.7714,-7.7811 c -0.8022,0.4787 -1.3329,1.2557 -1.5749,2.2886 4.2749,0.5094 8.4424,0.1897 11.1276,-1.8422 1.1518,-0.8702 1.3734,-2.2632 2.5291,-3.6255 m -14.6917,-5.5916 c 1.2028,1.1426 3.1363,1.0284 4.7203,1.4156 m -5.0536,7.7873 c 1.2024,-1.1435 2.7768,-1.993 4.3599,-2.3808 m -2.7731,-1.2438 c -1.078,1.2827 -1.669,2.5642 -1.9842,3.8472 3.1779,-0.3119 3.0628,-0.239 5.3733,-2.2916 m -2.7278,-8.6751 c -1.0054,0.3469 -1.7813,0.8297 -2.15,1.5545 0.6613,1.0488 1.3229,1.785 1.9845,2.4554 m -1.9845,1.3909 c 2.4627,3.1057 12.0758,-1.3334 16.3539,0.3507 m -0.0236,-4.2188 c -5.9663,-2.6654 -13.477,-2.6119 -15.5622,-4.794 -0.3699,2.3392 2.2425,4.4357 5.8825,6.0492 m 9.176,2.7314 c 0.4091,0.0791 2.3324,0.5341 1.2339,0.3016 m -16.2238,-8.7015 c 2.4625,4.4598 11.9452,3.5459 16.1388,7.0424 m -14.0644,-10.0465 c 0.0559,0.1003 0.3447,0.5978 0.4051,0.6902 2.6334,4.0164 10.0811,0.7943 12.9694,6.2921 m -0.1182,4.6474 c -0.1146,-0.0771 -0.228,-0.1517 -0.3408,-0.2257 -3.4792,-2.2578 -6.6064,-2.8675 -9.176,-2.7314 -4.1488,0.2208 -6.8411,2.391 -7.2054,2.7073 5.9445,5.048 10.0264,3.606 16.7222,0.2498 m 2.0137,-0.262 c 2.0319,-2.8888 4.0371,-6.6441 1.7234,-11.1866 -3.2907,1.6373 -3.6688,4.4589 -3.5787,7.6433 0.2171,1.3952 0.7744,2.5657 1.3816,3.7965 -1.1849,3.7241 -2.6728,8.3727 0.923,12.4628 2.7541,-1.3454 2.0531,-5.1129 0.47,-9.6333 -0.0366,-0.1037 -0.0737,-0.2092 -0.1114,-0.3146 -0.0675,-0.2929 -0.1466,-0.5689 -0.2302,-0.8391 -0.1891,-0.6123 -0.3997,-1.1905 -0.5579,-1.8482 z"
         style="fill:none;stroke:#373435;stroke-width:0.25850001;stroke-linecap:butt;stroke-linejoin:round;stroke-miterlimit:2.61312604;stroke-dasharray:none;stroke-opacity:1"
         id="path238"
         inkscape:connector-curvature="0" />
    </g>
    <g
       id="g240"
       transform="matrix(0.55490885,0,0,-0.55490885,-96.736448,297.455)">
      <path
         d="m 288.6831,435.4197 c -1.9856,-3.0036 -1.5369,-6.1733 -4.1615,-7.935"
         style="fill:none;stroke:#373435;stroke-width:0.2086;stroke-linecap:butt;stroke-linejoin:miter;stroke-miterlimit:2.61312604;stroke-dasharray:none;stroke-opacity:1"
         id="path242"
         inkscape:connector-curvature="0" />
    </g>
    <g
       id="g244"
       transform="matrix(0.43662952,0,0,-0.43837929,-96.736448,297.455)">
      <path
         d="m 319.5967,584.2454 h 74.0004 v -6.2498 h -5.8612 l 0.0394,-0.4986 c 2.1563,-27.9777 -3.1383,-52.2292 -31.6783,-67.5281 -28.0914,14.4916 -31.4805,40.2114 -30.2596,68.0267 h -6.2407 z m 61.8207,-6.2498 h -49.4657 c -0.6292,-6.967 -0.7798,-14.4267 0.01,-21.7375 1.7552,-16.2504 8.1572,-31.7684 24.281,-39.5229 23.3869,11.7312 27.5825,38.8548 25.1747,61.2604 z"
         style="fill:#fbb33c;fill-opacity:1;fill-rule:evenodd;stroke:#373435;stroke-width:0.4691;stroke-linecap:butt;stroke-linejoin:miter;stroke-miterlimit:2.61312604;stroke-dasharray:none;stroke-opacity:1"
         id="path246"
         inkscape:connector-curvature="0" />
    </g>
  </g>
</svg>
