<?xml version="1.0" encoding="UTF-8" standalone="no"?>
<!-- Created with Inkscape (http://www.inkscape.org/) -->

<svg
   xmlns:dc="http://purl.org/dc/elements/1.1/"
   xmlns:cc="http://creativecommons.org/ns#"
   xmlns:rdf="http://www.w3.org/1999/02/22-rdf-syntax-ns#"
   xmlns:svg="http://www.w3.org/2000/svg"
   xmlns="http://www.w3.org/2000/svg"
   xmlns:xlink="http://www.w3.org/1999/xlink"
   xmlns:sodipodi="http://sodipodi.sourceforge.net/DTD/sodipodi-0.dtd"
   xmlns:inkscape="http://www.inkscape.org/namespaces/inkscape"
   width="28.320564mm"
   height="34.043301mm"
   viewBox="0 0 100.34843 120.62582"
   id="svg2"
   version="1.1"
   inkscape:version="0.92.1 r15371"
   sodipodi:docname="Logo_of_Symbiosis_International_University.svg">
  <defs
     id="defs4">
    <linearGradient
       id="id0">
      <stop
         id="stop3450"
         offset="0"
         stop-color="#00aaec" />
      <stop
         id="stop3452"
         offset="1"
         stop-color="#0076d0" />
    </linearGradient>
    <linearGradient
       gradientUnits="userSpaceOnUse"
       x2="641.65002"
       x1="255.67"
       xlink:href="#id0" />
    <linearGradient
       gradientUnits="userSpaceOnUse"
       x2="861.70001"
       x1="725.20001"
       xlink:href="#id0" />
    <clipPath
       id="clipPath5029"
       clipPathUnits="userSpaceOnUse">
      <rect
         transform="scale(1,-1)"
         y="-790.0863"
         x="271.35229"
         height="94.85714"
         width="53.714287"
         id="rect5031"
         style="fill:#0000ff;fill-rule:evenodd;stroke:#000000;stroke-width:0.80000001px;stroke-linecap:butt;stroke-linejoin:miter;stroke-opacity:1" />
    </clipPath>
    <clipPath
       clipPathUnits="userSpaceOnUse"
       id="clipPath2999">
      <path
         d="M 0,0 H 595.276 V 841.89 H 0 Z"
         id="path3001"
         inkscape:connector-curvature="0" />
    </clipPath>
    <clipPath
       clipPathUnits="userSpaceOnUse"
       id="clipPath3007">
      <path
         d="M 0,0 H 595.278 V 841.887 H 0 Z"
         id="path3009"
         inkscape:connector-curvature="0" />
    </clipPath>
    <clipPath
       clipPathUnits="userSpaceOnUse"
       id="clipPath3017">
      <path
         d="M -8.505,-8.505 H 603.783 V 850.392 H -8.505 Z"
         id="path3019"
         inkscape:connector-curvature="0"
         style="clip-rule:evenodd" />
    </clipPath>
    <clipPath
       clipPathUnits="userSpaceOnUse"
       id="clipPath3025">
      <path
         d="M -44.073,850.392 H 639.351 V -8.505 H -44.073 Z"
         id="path3027"
         inkscape:connector-curvature="0" />
    </clipPath>
    <clipPath
       clipPathUnits="userSpaceOnUse"
       id="clipPath3033">
      <path
         d="M 595.278,841.887 H 0 V 0 H 595.278 Z M 46.35,650.034 H 552.267 V 578.52 H 46.35 Z"
         id="path3035"
         inkscape:connector-curvature="0" />
    </clipPath>
    <clipPath
       clipPathUnits="userSpaceOnUse"
       id="clipPath3045">
      <path
         d="m 8.505,700.155 h 578.268 v 85.041 H 8.505 Z"
         id="path3047"
         inkscape:connector-curvature="0"
         style="clip-rule:evenodd" />
    </clipPath>
    <clipPath
       clipPathUnits="userSpaceOnUse"
       id="clipPath3153">
      <path
         d="m 29.763,28.962 h 110.16 V 74.088 H 29.763 Z"
         id="path3155"
         inkscape:connector-curvature="0"
         style="clip-rule:evenodd" />
    </clipPath>
    <clipPath
       clipPathUnits="userSpaceOnUse"
       id="clipPath3161">
      <path
         d="m 0.938,2.957 h 1 v 1 h -1 z"
         id="path3163"
         inkscape:connector-curvature="0" />
    </clipPath>
    <clipPath
       clipPathUnits="userSpaceOnUse"
       id="clipPath3173">
      <path
         d="M 552.267,650.034 H 46.35 V 578.52 h 505.917 z"
         id="path3175"
         inkscape:connector-curvature="0" />
    </clipPath>
    <clipPath
       clipPathUnits="userSpaceOnUse"
       id="clipPath3181">
      <path
         d="m 46.162,578.346 h 506.327 v 72.006 H 46.162 Z"
         id="path3183"
         inkscape:connector-curvature="0" />
    </clipPath>
    <clipPath
       clipPathUnits="userSpaceOnUse"
       id="clipPath3201">
      <path
         d="M 433.701,35.901 H 586.773 V 66.618 H 433.701 Z"
         id="path3203"
         inkscape:connector-curvature="0" />
    </clipPath>
    <clipPath
       clipPathUnits="userSpaceOnUse"
       id="clipPath3289">
      <path
         d="m 481.321,50.262 c -1.215,1.215 -1.216,3.185 -0.001,4.401 1.215,1.215 3.185,1.215 4.401,0 1.215,-1.215 1.216,-3.185 10e-4,-4.401 -1.215,-1.215 -3.186,-1.216 -4.401,0"
         id="path3291"
         inkscape:connector-curvature="0" />
    </clipPath>
    <clipPath
       clipPathUnits="userSpaceOnUse"
       id="clipPath3305">
      <path
         d="m 481.292,50.188 c -0.254,0.255 -0.457,0.542 -0.608,0.848 1.186,-1.117 3.052,-1.095 4.212,0.064 1.159,1.16 1.18,3.027 0.063,4.212 0.306,-0.151 0.593,-0.353 0.847,-0.608 1.247,-1.247 1.248,-3.268 0.001,-4.515 -1.246,-1.247 -3.268,-1.247 -4.515,-10e-4"
         id="path3307"
         inkscape:connector-curvature="0" />
    </clipPath>
    <clipPath
       clipPathUnits="userSpaceOnUse"
       id="clipPath3313">
      <path
         d="m 481.321,50.262 c -1.215,1.215 -1.216,3.185 -0.001,4.401 1.215,1.215 3.185,1.215 4.401,0 1.215,-1.215 1.216,-3.185 10e-4,-4.401 -1.215,-1.215 -3.186,-1.216 -4.401,0"
         id="path3315"
         inkscape:connector-curvature="0" />
    </clipPath>
    <clipPath
       clipPathUnits="userSpaceOnUse"
       id="clipPath3323">
      <path
         d="m 481.321,50.262 c -1.215,1.215 -1.216,3.185 -0.001,4.401 1.215,1.215 3.185,1.215 4.401,0 1.215,-1.215 1.216,-3.185 10e-4,-4.401 -1.215,-1.215 -3.186,-1.216 -4.401,0"
         id="path3325"
         inkscape:connector-curvature="0" />
    </clipPath>
    <style
       type="text/css"
       id="style2989">
   
    .fil1 {fill:#2D4287}
    .fil3 {fill:#912747}
    .fil0 {fill:#B0ADB9}
    .fil2 {fill:#FEFEFE}
   
  </style>
    <clipPath
       id="clipPath6125-9">
      <path
         id="path6127-5"
         d="m 297.905,392.154 c -3.142,-10e-4 -5.688,-2.55 -5.687,-5.692 0.002,-3.142 2.551,-5.689 5.693,-5.686 3.142,10e-4 5.688,2.55 5.686,5.692 -10e-4,3.141 -2.549,5.686 -5.688,5.686 -10e-4,0 -0.003,0 -0.004,0"
         inkscape:connector-curvature="0" />
    </clipPath>
    <clipPath
       id="clipPath6037-0">
      <path
         id="path6039-7"
         d="m 297.901,398.972 c -6.908,-0.002 -12.505,-5.605 -12.501,-12.514 0.003,-6.909 5.606,-12.505 12.514,-12.501 6.909,0.002 12.506,5.606 12.502,12.514 -0.003,6.906 -5.603,12.501 -12.508,12.501 -0.003,0 -0.005,0 -0.007,0"
         inkscape:connector-curvature="0" />
    </clipPath>
    <clipPath
       id="clipPath5949-4">
      <path
         id="path5951-5"
         d="m 297.898,405.359 c -7.423,-0.004 -13.844,-4.289 -16.93,-10.517 -1.252,-2.527 -1.955,-5.375 -1.954,-8.387 10e-4,-1.194 0.113,-2.362 0.325,-3.496 l 5.992,0.004 c -0.308,1.112 -0.474,2.284 -0.475,3.495 -10e-4,2.082 0.486,4.051 1.352,5.797 2.132,4.302 6.566,7.259 11.693,7.261 5.123,0.003 9.557,-2.946 11.695,-7.239 0.872,-1.749 1.362,-3.72 1.363,-5.806 10e-4,-1.21 -0.164,-2.382 -0.472,-3.495 l 5.993,0.003 c 0.211,1.133 0.322,2.302 0.321,3.497 -10e-4,3.034 -0.717,5.9 -1.99,8.439 -3.102,6.194 -9.506,10.444 -16.903,10.444 -0.003,0 -0.007,0 -0.01,0"
         inkscape:connector-curvature="0" />
    </clipPath>
    <style
       id="style6"
       type="text/css" />
    <clipPath
       id="id0-0">
      <path
         inkscape:connector-curvature="0"
         d="m 8633510,5714190 c -24600,1540 -49320,2310 -74220,2310 -543320,0 -1805320,-278760 -2291740,-696690 -509520,386070 -1792310,696690 -2326840,696690 -25070,0 -49840,-3070 -74390,-7570 -1240,121770 5090,247990 12650,362790 28280,429090 103540,859700 217800,1274050 359680,1304120 1095870,2412390 2151410,3253100 1056450,-841400 1793430,-1950700 2153930,-3255750 114440,-414300 189940,-844870 218490,-1273940 7470,-112460 13760,-235680 12910,-354990 z"
         id="path7-8" />
    </clipPath>
    <clipPath
       id="id0-7">
      <path
         inkscape:connector-curvature="0"
         d="m 8633510,5714190 c -24600,1540 -49320,2310 -74220,2310 -543320,0 -1805320,-278760 -2291740,-696690 -509520,386070 -1792310,696690 -2326840,696690 -25070,0 -49840,-3070 -74390,-7570 -1240,121770 5090,247990 12650,362790 28280,429090 103540,859700 217800,1274050 359680,1304120 1095870,2412390 2151410,3253100 1056450,-841400 1793430,-1950700 2153930,-3255750 114440,-414300 189940,-844870 218490,-1273940 7470,-112460 13760,-235680 12910,-354990 z"
         id="path7-4" />
    </clipPath>
    <clipPath
       id="id0-1">
      <path
         inkscape:connector-curvature="0"
         d="m 8633510,5714190 c -24600,1540 -49320,2310 -74220,2310 -543320,0 -1805320,-278760 -2291740,-696690 -509520,386070 -1792310,696690 -2326840,696690 -25070,0 -49840,-3070 -74390,-7570 -1240,121770 5090,247990 12650,362790 28280,429090 103540,859700 217800,1274050 359680,1304120 1095870,2412390 2151410,3253100 1056450,-841400 1793430,-1950700 2153930,-3255750 114440,-414300 189940,-844870 218490,-1273940 7470,-112460 13760,-235680 12910,-354990 z"
         id="path7" />
    </clipPath>
    <path
       sodipodi:nodetypes="csc"
       inkscape:connector-curvature="0"
       id="path3533-1"
       d="M 364.8078,90.709934 C 360.98259,116.24345 395.71184,311.90746 587.91583,310.40299 811.03843,308.6565 811.53743,90.371474 813.83373,90.379444"
       style="fill:none;stroke:#000000;stroke-width:1px;stroke-linecap:butt;stroke-linejoin:miter;stroke-opacity:1" />
    <path
       sodipodi:open="true"
       sodipodi:end="1.5778873"
       sodipodi:start="4.7154838"
       transform="matrix(-0.01208376,0.97595172,0.96678104,0.01197021,-935.81727,1157.3714)"
       d="m -563.90937,959.50766 a 247.48737,227.28432 0 0 1 214.11012,114.51354 247.48737,227.28432 0 0 1 -1.26188,227.5435 247.48737,227.28432 0 0 1 -215.36907,112.5048"
       sodipodi:ry="227.28432"
       sodipodi:rx="247.48737"
       sodipodi:cy="1186.7909"
       sodipodi:cx="-564.67529"
       id="path4509-9"
       style="fill:none;stroke:#000000;stroke-width:3;stroke-miterlimit:4;stroke-dasharray:none;stroke-dashoffset:0;stroke-opacity:1"
       sodipodi:type="arc" />
    <path
       sodipodi:open="true"
       sodipodi:end="1.5778873"
       sodipodi:start="4.7154838"
       transform="matrix(-0.01208376,0.97595172,0.96678104,0.01197021,-935.81727,1157.3714)"
       d="m -563.90937,959.50766 a 247.48737,227.28432 0 0 1 214.11012,114.51354 247.48737,227.28432 0 0 1 -1.26188,227.5435 247.48737,227.28432 0 0 1 -215.36907,112.5048"
       sodipodi:ry="227.28432"
       sodipodi:rx="247.48737"
       sodipodi:cy="1186.7909"
       sodipodi:cx="-564.67529"
       id="path4509-9-2"
       style="fill:none;stroke:#000000;stroke-width:3;stroke-miterlimit:4;stroke-dasharray:none;stroke-dashoffset:0;stroke-opacity:1"
       sodipodi:type="arc" />
    <path
       sodipodi:open="true"
       sodipodi:end="1.5778873"
       sodipodi:start="4.7154838"
       transform="matrix(-0.01208376,0.97595172,0.96678104,0.01197021,-935.81727,1157.3714)"
       d="m -563.90937,959.50766 a 247.48737,227.28432 0 0 1 214.11012,114.51354 247.48737,227.28432 0 0 1 -1.26188,227.5435 247.48737,227.28432 0 0 1 -215.36907,112.5048"
       sodipodi:ry="227.28432"
       sodipodi:rx="247.48737"
       sodipodi:cy="1186.7909"
       sodipodi:cx="-564.67529"
       id="path4509-9-2-1"
       style="fill:none;stroke:#000000;stroke-width:3;stroke-miterlimit:4;stroke-dasharray:none;stroke-dashoffset:0;stroke-opacity:1"
       sodipodi:type="arc" />
    <path
       sodipodi:open="true"
       sodipodi:end="1.5778873"
       sodipodi:start="4.7154838"
       transform="matrix(-1.0372291,0,0,0.99987386,2071.4937,-124.29873)"
       d="m 820.70297,717.18701 a 227.14285,218.57143 0 0 1 196.50933,110.12369 227.14285,218.57143 0 0 1 -1.1581,218.8207 227.14285,218.57143 0 0 1 -197.66485,108.1919"
       sodipodi:ry="218.57143"
       sodipodi:rx="227.14285"
       sodipodi:cy="935.75739"
       sodipodi:cx="820"
       id="path4629-2"
       style="fill:none;stroke:#000000;stroke-width:3;stroke-miterlimit:4;stroke-dasharray:none;stroke-dashoffset:0;stroke-opacity:1"
       sodipodi:type="arc" />
    <path
       sodipodi:open="true"
       sodipodi:end="1.5778873"
       sodipodi:start="4.7154838"
       transform="matrix(-1.0372291,0,0,0.99987386,2071.4937,-124.29873)"
       d="m 820.70297,717.18701 a 227.14285,218.57143 0 0 1 196.50933,110.12369 227.14285,218.57143 0 0 1 -1.1581,218.8207 227.14285,218.57143 0 0 1 -197.66485,108.1919"
       sodipodi:ry="218.57143"
       sodipodi:rx="227.14285"
       sodipodi:cy="935.75739"
       sodipodi:cx="820"
       id="path4629-2-4"
       style="fill:none;stroke:#000000;stroke-width:3;stroke-miterlimit:4;stroke-dasharray:none;stroke-dashoffset:0;stroke-opacity:1"
       sodipodi:type="arc" />
    <path
       sodipodi:type="arc"
       style="fill:none;stroke:#000000;stroke-width:3;stroke-miterlimit:4;stroke-dasharray:none;stroke-dashoffset:0;stroke-opacity:1"
       id="path4629-2-4-1"
       sodipodi:cx="820"
       sodipodi:cy="935.75739"
       sodipodi:rx="227.14285"
       sodipodi:ry="218.57143"
       d="m 820.70297,717.18701 a 227.14285,218.57143 0 0 1 196.50933,110.12369 227.14285,218.57143 0 0 1 -1.1581,218.8207 227.14285,218.57143 0 0 1 -197.66485,108.1919"
       transform="matrix(-1.0372291,0,0,0.99987386,2071.4937,-124.29873)"
       sodipodi:start="4.7154838"
       sodipodi:end="1.5778873"
       sodipodi:open="true" />
    <path
       sodipodi:type="arc"
       style="fill:none;stroke:#000000;stroke-width:3;stroke-miterlimit:4;stroke-dasharray:none;stroke-dashoffset:0;stroke-opacity:1"
       id="path4629-2-7"
       sodipodi:cx="820"
       sodipodi:cy="935.75739"
       sodipodi:rx="227.14285"
       sodipodi:ry="218.57143"
       d="m 820.70297,717.18701 a 227.14285,218.57143 0 0 1 196.50933,110.12369 227.14285,218.57143 0 0 1 -1.1581,218.8207 227.14285,218.57143 0 0 1 -197.66485,108.1919"
       transform="matrix(-1.0372291,0,0,0.99987386,2071.4937,-124.29873)"
       sodipodi:start="4.7154838"
       sodipodi:end="1.5778873"
       sodipodi:open="true" />
    <path
       sodipodi:type="arc"
       style="fill:none;stroke:#000000;stroke-width:3;stroke-miterlimit:4;stroke-dasharray:none;stroke-dashoffset:0;stroke-opacity:1"
       id="path4509-9-2-1-1"
       sodipodi:cx="-564.67529"
       sodipodi:cy="1186.7909"
       sodipodi:rx="247.48737"
       sodipodi:ry="227.28432"
       d="m -563.90937,959.50766 a 247.48737,227.28432 0 0 1 214.11012,114.51354 247.48737,227.28432 0 0 1 -1.26188,227.5435 247.48737,227.28432 0 0 1 -215.36907,112.5048"
       transform="matrix(-0.01208376,0.97595172,0.96678104,0.01197021,-935.81727,1157.3714)"
       sodipodi:start="4.7154838"
       sodipodi:end="1.5778873"
       sodipodi:open="true" />
    <path
       sodipodi:type="arc"
       style="fill:none;stroke:#000000;stroke-width:3;stroke-miterlimit:4;stroke-dasharray:none;stroke-dashoffset:0;stroke-opacity:1"
       id="path4509-9-2-5"
       sodipodi:cx="-564.67529"
       sodipodi:cy="1186.7909"
       sodipodi:rx="247.48737"
       sodipodi:ry="227.28432"
       d="m -563.90937,959.50766 a 247.48737,227.28432 0 0 1 214.11012,114.51354 247.48737,227.28432 0 0 1 -1.26188,227.5435 247.48737,227.28432 0 0 1 -215.36907,112.5048"
       transform="matrix(-0.01208376,0.97595172,0.96678104,0.01197021,-935.81727,1157.3714)"
       sodipodi:start="4.7154838"
       sodipodi:end="1.5778873"
       sodipodi:open="true" />
    <path
       sodipodi:type="arc"
       style="fill:none;stroke:#000000;stroke-width:3;stroke-miterlimit:4;stroke-dasharray:none;stroke-dashoffset:0;stroke-opacity:1"
       id="path4509-9-5"
       sodipodi:cx="-564.67529"
       sodipodi:cy="1186.7909"
       sodipodi:rx="247.48737"
       sodipodi:ry="227.28432"
       d="m -563.90937,959.50766 a 247.48737,227.28432 0 0 1 214.11012,114.51354 247.48737,227.28432 0 0 1 -1.26188,227.5435 247.48737,227.28432 0 0 1 -215.36907,112.5048"
       transform="matrix(-0.01208376,0.97595172,0.96678104,0.01197021,-935.81727,1157.3714)"
       sodipodi:start="4.7154838"
       sodipodi:end="1.5778873"
       sodipodi:open="true" />
    <path
       style="fill:none;stroke:#000000;stroke-width:1px;stroke-linecap:butt;stroke-linejoin:miter;stroke-opacity:1"
       d="M 364.8078,90.709934 C 360.98259,116.24345 395.71184,311.90746 587.91583,310.40299 811.03843,308.6565 811.53743,90.371474 813.83373,90.379444"
       id="path3533-1-4"
       inkscape:connector-curvature="0"
       sodipodi:nodetypes="csc" />
    <clipPath
       id="id0-8">
      <path
         id="path7-82"
         d="m 8633510,5714190 c -24600,1540 -49320,2310 -74220,2310 -543320,0 -1805320,-278760 -2291740,-696690 -509520,386070 -1792310,696690 -2326840,696690 -25070,0 -49840,-3070 -74390,-7570 -1240,121770 5090,247990 12650,362790 28280,429090 103540,859700 217800,1274050 359680,1304120 1095870,2412390 2151410,3253100 1056450,-841400 1793430,-1950700 2153930,-3255750 114440,-414300 189940,-844870 218490,-1273940 7470,-112460 13760,-235680 12910,-354990 z"
         inkscape:connector-curvature="0" />
    </clipPath>
    <clipPath
       id="id0-7-9">
      <path
         id="path7-4-4"
         d="m 8633510,5714190 c -24600,1540 -49320,2310 -74220,2310 -543320,0 -1805320,-278760 -2291740,-696690 -509520,386070 -1792310,696690 -2326840,696690 -25070,0 -49840,-3070 -74390,-7570 -1240,121770 5090,247990 12650,362790 28280,429090 103540,859700 217800,1274050 359680,1304120 1095870,2412390 2151410,3253100 1056450,-841400 1793430,-1950700 2153930,-3255750 114440,-414300 189940,-844870 218490,-1273940 7470,-112460 13760,-235680 12910,-354990 z"
         inkscape:connector-curvature="0" />
    </clipPath>
    <clipPath
       id="id0-0-4">
      <path
         id="path7-8-0"
         d="m 8633510,5714190 c -24600,1540 -49320,2310 -74220,2310 -543320,0 -1805320,-278760 -2291740,-696690 -509520,386070 -1792310,696690 -2326840,696690 -25070,0 -49840,-3070 -74390,-7570 -1240,121770 5090,247990 12650,362790 28280,429090 103540,859700 217800,1274050 359680,1304120 1095870,2412390 2151410,3253100 1056450,-841400 1793430,-1950700 2153930,-3255750 114440,-414300 189940,-844870 218490,-1273940 7470,-112460 13760,-235680 12910,-354990 z"
         inkscape:connector-curvature="0" />
    </clipPath>
    <style
       id="style6-5"
       type="text/css" />
    <linearGradient
       gradientUnits="userSpaceOnUse"
       id="id0-4"
       y2="11.7739"
       x2="826.26202"
       y1="1673.47"
       x1="826.26202">
      <stop
         id="stop9"
         offset="0"
         style="stop-color:#ffffff;stop-opacity:1" />
      <stop
         id="stop11"
         offset="0.278431"
         style="stop-color:#fffffc;stop-opacity:1" />
      <stop
         id="stop13"
         offset="0.709804"
         style="stop-color:#ffea01;stop-opacity:1" />
      <stop
         id="stop15"
         offset="1"
         style="stop-color:#c92221;stop-opacity:1" />
    </linearGradient>
    <radialGradient
       gradientUnits="userSpaceOnUse"
       id="id1"
       fy="277.224"
       fx="698.28601"
       r="125.776"
       cy="277.224"
       cx="698.28601">
      <stop
         id="stop18"
         offset="0"
         style="stop-color:#fae300;stop-opacity:1" />
      <stop
         id="stop20"
         offset="0.49019599"
         style="stop-color:#f78b14;stop-opacity:1" />
      <stop
         id="stop22"
         offset="1"
         style="stop-color:#f53327;stop-opacity:1" />
    </radialGradient>
    <style
       id="style6950"
       type="text/css"><![CDATA[
    .fil0 {fill:#C52F33}
    .fil1 {fill:#C52F33;fill-rule:nonzero}
   ]]></style>
  </defs>
  <sodipodi:namedview
     id="base"
     pagecolor="#ffffff"
     bordercolor="#666666"
     borderopacity="1.0"
     inkscape:pageopacity="0.0"
     inkscape:pageshadow="2"
     inkscape:zoom="1.979899"
     inkscape:cx="147.51307"
     inkscape:cy="48.459329"
     inkscape:document-units="px"
     inkscape:current-layer="Layer_x0020_1"
     showgrid="false"
     fit-margin-top="0"
     fit-margin-left="0"
     fit-margin-right="0"
     fit-margin-bottom="0"
     inkscape:window-width="1920"
     inkscape:window-height="1132"
     inkscape:window-x="-8"
     inkscape:window-y="-8"
     inkscape:window-maximized="1" />
  <metadata
     id="metadata7">
    <rdf:RDF>
      <cc:Work
         rdf:about="">
        <dc:format>image/svg+xml</dc:format>
        <dc:type
           rdf:resource="http://purl.org/dc/dcmitype/StillImage" />
        <dc:title />
      </cc:Work>
    </rdf:RDF>
  </metadata>
  <g
     inkscape:label="Layer 1"
     inkscape:groupmode="layer"
     id="layer1"
     transform="translate(902.4043,-972.61301)">
    <g
       style="clip-rule:evenodd;fill-rule:evenodd;image-rendering:optimizeQuality;shape-rendering:geometricPrecision;text-rendering:geometricPrecision"
       id="g6990"
       transform="matrix(0.34843201,0,0,0.34843201,-1061.2893,963.55378)">
      <g
         id="Layer_x0020_1">
        <metadata
           id="CorelCorpID_0Corel-Layer" />
        <g
           id="g6955">
          <path
             style="fill:#c52f33"
             inkscape:connector-curvature="0"
             class="fil0"
             d="m 494,335 v 0 h -13 v 0 h -10 v 3 h 10 v 0 h 3 v 12 c -1,1 -3,1 -5,1 -4,0 -4,-5 -2,-5 3,-1 6,-1 6,-1 l -2,-3 c -2,-1 -8,-1 -8,3 0,3 2,9 8,10 1,0 3,0 3,-1 v 3 l 5,4 v -23 h 4 v 0 h 7 v 7 c 0,0 1,2 -1,2 -1,0 -3,-3 -5,-2 -1,1 1,4 1,4 l 12,12 2,-2 -10,-8 c 0,0 2,0 4,-1 1,-1 2,-3 2,-3 v -6 l -3,-3 h 7 v 0 h 3 v 8 c -1,0 -2,1 -3,1 -2,0 -4,-1 -4,-1 0,0 2,4 4,5 1,0 2,0 3,-1 v 7 l 4,4 v -23 h 5 v -3 h -13 v 0 z m 27,32 c 0,-4 -4,-6 -7,-6 -4,0 -4,1 -5,1 l 4,3 c 0,0 0,-1 3,-1 2,0 2,1 2,2 0,2 -4,4 -7,3 -4,-1 -7,-5 -7,-5 l -1,2 c 0,0 5,6 10,6 6,1 8,-2 8,-5 z m 27,-32 v 0 h -6 c -1,-2 -5,-11 -7,-11 -4,-1 -6,0 -6,0 l 2,3 c 0,0 2,-1 4,0 2,0 5,6 6,8 h -4 c -1,-1 -4,-6 -6,-6 -4,-2 -6,0 -6,0 l 2,3 c 0,-1 0,-1 3,-1 2,0 4,3 5,4 v 0 3 h 4 v 12 c -2,2 -5,3 -7,3 -5,0 -6,-5 -1,-5 1,0 3,0 3,0 l -2,-4 c 0,0 -1,0 -2,0 -1,0 -2,0 -2,0 0,0 -3,-1 -2,-6 1,-3 4,-4 5,-2 0,2 -3,3 -4,3 l 3,3 c 1,-1 3,-2 3,-4 -1,-7 -10,-6 -11,0 -1,5 5,7 5,7 0,0 -2,1 -2,3 0,3 4,8 9,8 2,0 3,0 5,-1 v 2 l 4,4 v -23 h 4 v 0 h 10 v 0 h 3 v 12 c -1,1 -3,1 -5,1 -4,0 -4,-5 -2,-5 3,-1 6,-1 6,-1 l -2,-3 c -2,-1 -8,-1 -8,3 0,3 2,9 8,10 1,0 2,0 3,-1 v 3 l 5,4 v -23 h 5 v -3 h -13 v 0 z m 116,15 -2,1 -4,-6 c 0,0 1,0 2,0 1,0 2,1 2,1 l -2,-4 c -1,0 -9,-1 -9,3 0,0 0,1 0,1 h -5 v -8 h 3 v 0 h 12 v 0 h 3 z m 39,-15 v 0 h -30 -1 -12 v 0 h -10 v 0 h -14 -1 -19 -2 -29 v 3 h 14 v 10 c 0,0 -2,2 -6,2 -4,1 -4,-3 -3,-4 3,-1 7,0 7,0 l -2,-4 c -2,0 -9,0 -9,3 0,3 4,9 9,9 1,0 4,-1 4,-1 v 4 l 4,4 v -14 c 0,0 3,-1 5,-1 3,0 5,3 2,5 -1,1 -4,2 -4,2 l 2,3 c 1,0 6,0 6,-5 0,-4 -3,-9 -8,-9 -2,0 -3,1 -3,1 v -5 h 11 2 11 v 6 h -7 c 0,0 -5,0 -5,5 1,3 6,11 10,11 6,0 8,-4 9,-4 l -3,-4 c 0,0 -3,4 -7,4 -2,0 -5,-2 -5,-4 0,-5 4,-5 4,-5 h 9 v -9 h 3 1 6 v 8 h -3 c 0,0 -2,0 -2,2 0,1 6,6 7,6 2,0 2,-2 2,-2 v -2 h 7 c 1,3 4,5 7,5 1,1 3,0 4,0 v 2 l 4,4 v -23 h 4 1 13 v 10 c 0,0 -2,2 -6,2 -4,1 -4,-3 -3,-4 3,-1 7,0 7,0 l -2,-4 c -2,0 -8,0 -9,3 0,3 4,9 9,9 2,0 4,-1 4,-1 v 4 l 4,4 v -14 c 0,0 3,-1 5,-1 3,0 5,3 2,5 -1,1 -4,2 -4,2 l 3,3 c 0,0 5,0 5,-5 0,-4 -3,-9 -8,-9 -2,0 -3,1 -3,1 v -5 h 11 v 0 h 6 v 8 h -2 c 0,0 -2,0 -2,2 0,1 5,6 7,6 2,0 2,-2 2,-2 v -2 h 7 v 7 l 4,4 v -23 h 5 v -3 h -13 v 0 z m 16,11 h -7 v -8 h 4 v 0 h 3 z m 10,24 c 0,0 -2,-5 -6,-7 -1,0 -2,-1 -2,-1 h -5 l 3,4 h 3 c 0,0 2,0 3,1 2,2 3,4 3,4 z m -122,-3 c 0,-4 -4,-6 -6,-6 -4,0 -5,1 -5,1 l 3,3 c 0,0 1,-1 3,-1 3,0 3,1 3,2 0,2 -5,4 -7,3 -4,-1 -7,-5 -7,-5 l -1,2 c 0,0 4,6 10,6 5,1 7,-2 7,-5 z m 29,0 c 0,-4 -4,-6 -7,-6 -4,0 -4,1 -4,1 l 3,3 c 0,0 0,-1 3,-1 2,0 2,1 2,2 0,2 -4,4 -7,3 -4,-1 -6,-5 -6,-5 l -2,2 c 0,0 5,6 10,6 6,1 8,-2 8,-5 z m 24,-15 c 0,0 -1,0 -3,0 -4,0 -4,-4 -2,-5 1,-1 1,-1 1,-1 z"
             id="path6957" />
          <polygon
             style="fill:#c52f33"
             class="fil0"
             points="459,359 459,335 456,332 456,357 "
             id="polygon6959" />
          <polygon
             style="fill:#c52f33"
             class="fil0"
             points="467,359 467,335 463,332 463,357 "
             id="polygon6961" />
          <polygon
             style="fill:#c52f33"
             class="fil0"
             points="736,359 736,335 733,332 733,357 "
             id="polygon6963" />
          <polygon
             style="fill:#c52f33"
             class="fil0"
             points="744,359 744,335 740,332 740,357 "
             id="polygon6965" />
          <path
             style="fill:#c52f33;fill-rule:nonzero"
             inkscape:connector-curvature="0"
             class="fil1"
             d="m 636,69 2,1 3,1 2,2 3,1 2,1 3,1 2,2 3,1 2,1 2,2 2,1 2,2 2,2 2,1 2,2 2,2 2,2 2,1 2,2 2,2 1,2 2,2 2,2 1,2 2,3 1,2 2,2 1,2 1,2 1,3 2,2 1,2 -5,3 -1,-3 -1,-2 -2,-2 -1,-2 -1,-2 -1,-2 -2,-2 -1,-2 -2,-2 -1,-2 -2,-2 -1,-2 -2,-2 -2,-2 -2,-1 -1,-2 -2,-2 -2,-1 -2,-2 -2,-2 -2,-1 -2,-2 -2,-1 -2,-1 -3,-2 -2,-1 -2,-1 -2,-1 -3,-1 -2,-1 -3,-1 -2,-1 z m 61,56 1,3 1,2 1,2 1,3 1,2 v 3 l 1,2 1,3 v 2 l 1,3 v 3 l 1,2 v 3 2 l 1,3 v 3 2 3 2 3 3 l -1,2 v 3 3 l -1,2 v 3 l -1,3 v 2 l -1,3 -1,3 -1,2 -1,3 -5,-2 1,-2 1,-3 1,-2 v -3 l 1,-2 v -3 l 1,-3 v -2 l 1,-3 v -2 -3 -2 -3 -2 -3 -2 -3 -2 -3 l -1,-2 v -3 l -1,-2 v -2 l -1,-3 v -2 l -1,-3 -1,-2 -1,-2 v -3 l -1,-2 -1,-2 -1,-2 z m 3,83 -1,3 -1,2 -1,3 -1,2 -1,3 -1,2 -2,2 -1,3 -2,2 -1,2 -2,2 -1,3 -2,2 -1,2 -2,2 -2,2 -2,2 -2,1 -2,2 -1,2 -2,2 -2,1 -3,2 -2,1 -2,2 -2,1 -2,2 -2,1 -3,1 -2,2 -2,1 -3,1 -2,-5 2,-1 3,-1 2,-1 2,-2 2,-1 2,-1 2,-2 2,-1 2,-2 2,-1 2,-2 2,-1 2,-2 1,-2 2,-1 2,-2 2,-2 1,-2 2,-2 1,-2 2,-2 1,-2 2,-2 1,-2 1,-2 2,-3 1,-2 1,-2 1,-3 1,-2 1,-2 1,-3 z m -56,61 -2,1 -2,1 -3,1 -2,1 -3,1 -2,1 h -3 l -2,1 h -3 l -2,1 -3,1 h -2 -3 l -2,1 h -3 -3 -2 -3 -3 -2 -3 -3 l -2,-1 h -3 -3 l -2,-1 -3,-1 h -3 l -2,-1 -3,-1 -3,-1 h -2 l 2,-6 2,1 3,1 2,1 h 3 l 2,1 3,1 h 2 3 l 2,1 h 3 2 3 l 2,1 h 3 3 l 2,-1 h 2 3 2 l 3,-1 h 2 3 l 2,-1 3,-1 h 2 l 2,-1 3,-1 h 2 l 2,-1 3,-1 2,-1 2,-1 z m -82,4 -3,-1 -2,-1 -3,-2 -2,-1 -3,-1 -2,-1 -3,-2 -2,-1 -2,-1 -2,-2 -3,-1 -2,-2 -2,-2 -2,-1 -2,-2 -2,-2 -2,-2 -2,-1 -1,-2 -2,-2 -2,-2 -1,-2 -2,-2 -2,-2 -1,-3 -2,-2 -1,-2 -1,-2 -2,-2 -1,-3 -1,-2 -1,-2 5,-3 1,3 1,2 1,2 1,2 2,2 1,2 1,2 2,2 1,2 2,2 1,2 2,2 2,2 1,2 2,1 2,2 2,2 2,1 2,2 2,2 2,1 2,2 2,1 2,1 2,2 2,1 3,1 2,1 2,1 3,1 2,1 3,1 z m -61,-56 -1,-3 -1,-2 -1,-2 -1,-3 -1,-2 -1,-3 v -2 l -1,-3 -1,-2 v -3 l -1,-3 v -2 -3 l -1,-2 v -3 -3 -2 -3 -2 -3 -3 -2 l 1,-3 v -3 -2 l 1,-3 v -3 l 1,-2 1,-3 v -3 l 1,-2 1,-3 5,2 v 2 l -1,3 -1,2 -1,3 v 2 l -1,3 v 3 l -1,2 v 3 2 3 l -1,2 v 3 2 3 2 l 1,3 v 2 3 2 l 1,3 v 2 l 1,2 v 3 l 1,2 1,3 v 2 l 1,2 1,3 1,2 1,2 1,2 z m -4,-83 1,-3 1,-2 1,-3 2,-2 1,-3 1,-2 1,-2 2,-3 1,-2 2,-2 1,-2 2,-3 1,-2 2,-2 2,-2 2,-2 1,-1 2,-2 2,-2 2,-2 2,-2 2,-1 2,-2 2,-1 2,-2 3,-1 2,-2 2,-1 2,-1 2,-2 3,-1 2,-1 2,5 -2,1 -2,1 -2,1 -2,2 -2,1 -2,1 -2,2 -2,1 -2,2 -2,1 -2,2 -2,1 -2,2 -2,2 -2,1 -1,2 -2,2 -2,2 -1,2 -2,2 -1,2 -2,2 -1,2 -1,2 -2,2 -1,3 -1,2 -1,2 -2,3 -1,2 -1,2 -1,3 z m 56,-61 3,-1 2,-1 2,-1 3,-1 2,-1 3,-1 h 2 l 3,-1 h 2 l 3,-1 2,-1 h 3 2 l 3,-1 h 3 2 3 3 2 3 3 2 l 3,1 h 3 2 l 3,1 3,1 h 2 l 3,1 3,1 2,1 h 3 l -2,6 -3,-1 -2,-1 -3,-1 h -2 l -3,-1 -2,-1 h -3 -2 l -3,-1 h -2 -3 -2 l -3,-1 h -2 l -3,1 h -2 -3 -2 -3 l -2,1 h -3 -2 l -3,1 -2,1 h -2 l -3,1 -2,1 h -2 l -3,1 -2,1 -2,1 -3,1 z"
             id="path6967" />
          <polygon
             style="fill:#c52f33;fill-rule:nonzero"
             class="fil1"
             points="632,72 637,74 566,270 561,268 "
             id="polygon6969" />
          <path
             style="fill:#c52f33;fill-rule:nonzero"
             inkscape:connector-curvature="0"
             class="fil1"
             d="m 636,69 2,1 1,1 2,1 2,1 h 1 l 2,1 1,2 2,1 1,1 2,1 1,1 2,2 1,1 1,1 2,2 1,1 1,2 1,2 1,1 1,2 1,2 1,1 1,2 1,2 1,2 1,2 v 2 l 1,2 1,2 v 2 l 1,2 1,2 -6,2 v -2 l -1,-2 v -2 l -1,-2 -1,-2 v -2 l -1,-2 -1,-1 -1,-2 -1,-2 v -1 l -1,-2 -1,-2 -1,-1 -1,-2 -1,-1 -2,-1 -1,-2 -1,-1 -1,-1 -1,-1 -2,-2 -1,-1 -1,-1 -2,-1 -1,-1 -1,-1 -2,-1 h -1 l -2,-1 -2,-1 h -1 z m 38,48 v 3 l 1,2 v 2 2 l 1,2 v 3 2 2 l 1,3 v 2 2 3 2 3 2 l -1,3 v 2 3 2 l -1,3 v 2 l -1,3 v 3 l -1,2 v 3 l -1,2 v 3 l -1,3 -1,2 -1,3 -1,2 -1,3 -5,-2 1,-2 1,-3 1,-2 v -3 l 1,-2 1,-3 v -2 l 1,-3 v -2 l 1,-3 v -2 l 1,-3 v -2 -3 l 1,-2 v -3 -2 -2 -3 -2 -2 -3 -2 -2 -2 l -1,-3 v -2 -2 -2 l -1,-2 v -2 l -1,-2 z m -12,78 v -1 l 3,1 z m 6,0 v 0 h -6 v 0 z m 0,0 -1,1 -2,-1 z m -1,1 -1,3 -1,2 -1,3 -1,2 -1,3 -1,2 -1,2 -1,3 -2,2 -1,2 -1,3 -2,2 -1,2 -1,2 -2,2 -1,2 -2,2 -1,2 -2,2 -1,2 -2,2 -1,2 -2,2 -2,1 -1,2 -2,2 -2,1 -1,2 -2,1 -2,1 -2,2 -1,1 -4,-4 2,-2 2,-1 1,-1 2,-2 2,-1 1,-2 2,-1 1,-2 2,-1 2,-2 1,-2 2,-2 1,-1 2,-2 1,-2 1,-2 2,-2 1,-2 1,-2 2,-2 1,-2 1,-2 2,-3 1,-2 1,-2 1,-2 1,-3 1,-2 1,-3 1,-2 1,-2 1,-3 z m -45,64 -2,1 -2,2 -2,1 -2,1 -2,1 -1,1 -2,1 -2,1 -2,1 -2,1 h -2 l -2,1 -2,1 h -1 l -2,1 h -2 l -2,1 h -2 -2 -2 l -2,1 h -2 -2 -1 l -2,-1 h -2 -2 -2 l -2,-1 h -2 l -1,-1 h -2 l 2,-6 1,1 h 2 l 2,1 h 1 2 l 2,1 h 1 2 2 2 1 2 2 l 1,-1 h 2 2 l 2,-1 h 1 l 2,-1 h 2 l 2,-1 1,-1 h 2 l 2,-1 1,-1 2,-1 2,-1 2,-1 1,-1 2,-1 2,-1 1,-1 z m -60,13 -2,-1 -2,-1 -1,-1 -2,-1 h -2 l -1,-1 -2,-1 -1,-2 -2,-1 -1,-1 -2,-1 -1,-2 -1,-1 -2,-1 -1,-2 -1,-1 -1,-2 -1,-1 -2,-2 -1,-2 -1,-2 -1,-1 -1,-2 v -2 l -1,-2 -1,-2 -1,-2 -1,-2 v -2 l -1,-2 v -2 l -1,-2 5,-2 1,2 v 2 l 1,2 1,2 v 2 l 1,2 1,2 1,1 v 2 l 1,2 1,1 1,2 1,2 1,1 1,2 1,1 1,1 1,2 1,1 2,1 1,1 1,2 1,1 2,1 1,1 2,1 1,1 2,1 h 1 l 2,1 1,1 h 2 z m -38,-48 v -2 l -1,-3 v -2 l -1,-2 v -2 -3 l -1,-2 v -2 -3 -2 -2 -3 -2 -3 -2 -3 -2 l 1,-3 v -2 -3 l 1,-2 v -3 l 1,-3 v -2 l 1,-3 v -2 l 1,-3 1,-3 1,-2 v -3 l 1,-2 1,-3 5,2 v 2 l -1,3 -1,2 -1,3 -1,2 v 3 l -1,2 v 3 l -1,2 v 3 l -1,2 v 3 2 l -1,3 v 2 3 2 2 l -1,3 v 2 2 l 1,3 v 2 2 2 3 2 l 1,2 v 2 l 1,2 v 2 2 z m 12,-78 -1,1 -2,-1 z m -6,0 v 0 h 6 v 0 z m 0,0 v -1 l 3,1 z m 0,-1 1,-3 1,-2 1,-3 1,-2 1,-3 2,-2 1,-2 1,-3 1,-2 2,-2 1,-3 1,-2 2,-2 1,-2 1,-2 2,-2 1,-2 2,-2 1,-2 2,-2 1,-2 2,-2 2,-2 1,-1 2,-2 2,-1 1,-2 2,-2 2,-1 1,-1 2,-2 2,-1 3,4 -1,2 -2,1 -2,1 -1,2 -2,1 -2,2 -1,1 -2,2 -1,1 -2,2 -1,2 -2,2 -1,1 -2,2 -1,2 -2,2 -1,2 -1,2 -2,2 -1,2 -1,2 -2,2 -1,3 -1,2 -1,2 -1,2 -2,3 -1,2 -1,3 -1,2 -1,2 -1,3 z m 46,-64 2,-1 2,-2 1,-1 2,-1 2,-1 2,-1 2,-1 2,-1 2,-1 2,-1 h 1 l 2,-1 2,-1 h 2 l 2,-1 h 2 l 2,-1 h 2 2 2 l 1,-1 h 2 2 2 l 2,1 h 2 2 2 l 1,1 h 2 l 2,1 h 2 l -2,6 -2,-1 h -1 l -2,-1 h -2 -1 l -2,-1 h -2 -1 -2 -2 -2 -1 -2 l -2,1 h -2 -1 l -2,1 h -2 l -1,1 h -2 l -2,1 -2,1 h -1 l -2,1 -2,1 -2,1 -1,1 -2,1 -2,1 -1,1 -2,1 -2,1 z"
             id="path6971" />
          <path
             style="fill:#c52f33;fill-rule:nonzero"
             inkscape:connector-curvature="0"
             class="fil1"
             d="m 636,69 1,1 h 1 l 1,1 v 0 l 1,1 1,1 h 1 l 1,1 v 1 l 1,1 1,1 v 1 l 1,1 v 1 l 1,2 v 1 l 1,1 v 2 1 l 1,2 v 1 2 l 1,1 v 2 2 1 2 2 2 2 2 2 l -5,-1 v -1 -2 -2 -1 -2 -2 -1 l -1,-2 v -1 -1 -2 -1 l -1,-1 v -2 -1 l -1,-1 v -1 -1 l -1,-1 v -1 l -1,-1 v -1 l -1,-1 v 0 l -1,-1 v -1 h -1 v -1 h -1 l -1,-1 v 0 h -1 z m 14,41 v 2 1 2 3 2 2 l -1,2 v 2 2 l -1,2 v 3 2 l -1,2 v 2 l -1,3 v 2 l -1,2 v 3 l -1,2 v 3 l -1,2 -1,3 v 2 l -1,3 -1,2 v 3 l -1,2 -1,3 -1,2 -1,3 -1,2 -1,3 -5,-2 1,-2 1,-3 1,-3 1,-2 v -3 l 1,-2 1,-2 1,-3 v -2 l 1,-3 1,-2 v -3 l 1,-2 v -2 l 1,-3 v -2 l 1,-2 v -3 l 1,-2 v -2 l 1,-2 v -2 -3 l 1,-2 v -2 -2 -2 -2 l 1,-2 v -2 -2 -2 z m -16,74 -1,3 v 2 l -1,3 -1,2 -1,3 -2,2 -1,2 -1,3 -1,2 -1,3 -1,2 -1,2 -1,2 -1,3 -1,2 -1,2 -2,2 -1,2 -1,2 -1,2 -1,2 -1,2 -1,2 -2,2 -1,2 -1,1 -1,2 -1,2 -2,2 -1,1 -1,2 -1,1 -5,-3 2,-2 1,-1 1,-2 1,-1 1,-2 1,-2 2,-2 1,-1 1,-2 1,-2 1,-2 1,-2 1,-2 2,-2 1,-2 1,-2 1,-2 1,-2 1,-2 1,-2 1,-3 1,-2 1,-2 1,-2 1,-3 1,-2 1,-3 1,-2 1,-2 1,-3 1,-2 1,-3 z m -35,67 -1,2 -2,1 -1,2 -1,1 -1,1 -2,2 -1,1 -1,1 -1,1 -2,1 -1,1 -1,1 -1,1 -1,1 -2,1 -1,1 h -1 l -1,1 h -1 l -1,1 h -2 l -1,1 h -1 -1 -1 -1 -1 -1 -1 -1 -1 -1 l 2,-6 v 1 h 1 1 1 1 v 0 h 1 1 l 1,-1 h 1 1 l 1,-1 h 1 l 1,-1 h 1 l 1,-1 1,-1 h 1 l 1,-1 1,-1 1,-1 1,-1 1,-1 1,-1 1,-1 1,-1 1,-1 1,-1 1,-1 1,-2 1,-1 1,-1 z m -37,22 -1,-1 h -1 l -1,-1 h -1 l -1,-1 v -1 h -1 l -1,-1 -1,-1 v -1 l -1,-1 v -1 l -1,-1 -1,-1 v -2 l -1,-1 v -1 -2 l -1,-1 v -2 -1 l -1,-2 v -1 -2 -2 l -1,-1 v -2 -2 -2 -2 -2 -2 l 6,1 v 1 2 2 1 2 2 1 2 1 l 1,1 v 2 1 1 l 1,2 v 1 1 l 1,1 v 1 1 l 1,1 v 1 l 1,1 v 1 h 1 v 1 l 1,1 v 0 l 1,1 h 1 v 1 h 1 1 z m -15,-41 v -2 -1 l 1,-2 v -3 -2 -2 -2 l 1,-2 v -2 -2 l 1,-3 v -2 -2 l 1,-2 v -3 l 1,-2 v -2 l 1,-3 v -2 l 1,-3 1,-2 v -3 l 1,-2 1,-3 v -2 l 1,-3 1,-2 1,-3 1,-2 v -3 l 1,-2 1,-3 5,2 v 2 l -1,3 -1,3 -1,2 -1,3 -1,2 v 2 l -1,3 -1,2 v 3 l -1,2 -1,3 v 2 l -1,2 v 3 l -1,2 v 2 l -1,3 v 2 l -1,2 v 2 2 l -1,3 v 2 2 2 l -1,2 v 2 2 2 2 2 z m 16,-74 1,-3 1,-2 1,-3 1,-2 1,-3 1,-2 1,-2 1,-3 1,-2 1,-3 1,-2 2,-2 1,-2 1,-3 1,-2 1,-2 1,-2 1,-2 1,-2 2,-2 1,-2 1,-2 1,-2 1,-2 1,-2 2,-1 1,-2 1,-2 1,-1 1,-2 2,-2 1,-1 4,3 -1,2 -1,1 -1,2 -1,1 -2,2 -1,2 -1,2 -1,1 -1,2 -1,2 -2,2 -1,2 -1,2 -1,2 -1,2 -1,2 -1,2 -1,2 -1,2 -1,2 -2,3 -1,2 -1,2 -1,2 -1,3 -1,2 -1,3 -1,2 -1,2 -1,3 -1,2 -1,3 z m 36,-67 1,-2 1,-1 2,-2 1,-1 1,-1 1,-2 1,-1 2,-1 1,-1 1,-1 1,-1 2,-1 1,-1 1,-1 1,-1 1,-1 h 2 l 1,-1 h 1 l 1,-1 h 1 l 1,-1 h 1 1 2 1 1 1 1 1 1 1 l -2,6 -1,-1 h -1 v 0 h -1 -1 -1 -1 -1 v 1 h -1 -1 l -1,1 h -1 l -1,1 h -1 l -1,1 -1,1 h -1 l -1,1 -1,1 -1,1 -1,1 -1,1 -1,1 -1,1 -1,1 -1,1 -1,1 -2,1 -1,2 -1,1 -1,1 z"
             id="path6973" />
          <path
             style="fill:#c52f33;fill-rule:nonzero"
             inkscape:connector-curvature="0"
             class="fil1"
             d="m 697,125 v 0 l -1,1 v 0 0 l -1,1 v 0 0 l -1,1 h -1 v 0 l -1,1 v 0 h -1 -1 -1 -1 v 1 h -1 -1 -1 -1 -1 -1 -1 -2 -1 -1 l -1,-1 h -1 -2 -1 -1 v -6 h 1 l 2,1 h 1 1 1 1 v 0 h 1 1 1 1 1 1 v 0 h 1 1 v 0 h 1 v 0 h 1 1 v 0 0 h 1 v 0 h 1 v 0 -1 0 0 h 1 v 0 z m -26,4 h -2 l -1,-1 h -1 -2 -1 l -1,-1 h -2 -1 l -2,-1 h -1 -2 l -1,-1 h -2 -1 l -2,-1 h -1 l -2,-1 h -2 l -1,-1 h -2 l -1,-1 h -2 l -2,-1 h -1 l -2,-1 h -2 l -2,-1 h -1 l -2,-1 -2,-1 h -2 l -1,-1 2,-5 h 1 l 2,1 2,1 h 1 l 2,1 h 2 l 1,1 h 2 l 2,1 1,1 h 2 l 2,1 h 1 2 l 1,1 h 2 l 2,1 h 1 l 2,1 h 1 2 l 1,1 h 1 2 l 1,1 h 2 1 1 l 2,1 h 1 1 1 z m -50,-14 -2,-1 h -2 l -2,-1 -1,-1 h -2 l -2,-1 -1,-1 h -2 l -2,-1 -1,-1 h -2 l -2,-1 -1,-1 h -2 l -1,-1 -2,-1 h -1 l -2,-1 -1,-1 h -1 l -2,-1 -1,-1 -2,-1 h -1 l -1,-1 -1,-1 h -2 l -1,-1 -1,-1 h -1 l -1,-1 -1,-1 2,-4 h 2 l 1,1 1,1 h 1 l 1,1 1,1 h 2 l 1,1 1,1 h 1 l 2,1 1,1 h 1 l 2,1 1,1 h 2 l 1,1 2,1 h 1 l 2,1 1,1 h 2 l 1,1 2,1 h 2 l 1,1 2,1 h 2 l 1,1 2,1 h 2 l 2,1 z M 574,93 h -2 l -1,-1 -1,-1 h -1 l -1,-1 -1,-1 -1,-1 h -1 l -1,-1 v -1 h -1 l -1,-1 -1,-1 v 0 l -1,-1 -1,-1 v 0 l -1,-1 v 0 l -1,-1 v -1 0 l -1,-1 v 0 -1 -1 0 -1 0 -1 0 -1 l 5,2 v 0 1 0 0 0 1 h 1 v 0 1 0 h 1 v 1 0 l 1,1 v 0 h 1 v 1 h 1 v 1 h 1 l 1,1 v 0 l 1,1 h 1 v 1 h 1 l 1,1 h 1 l 1,1 1,1 h 1 v 1 z"
             id="path6975" />
          <path
             style="fill:#c52f33;fill-rule:nonzero"
             inkscape:connector-curvature="0"
             class="fil1"
             d="m 501,217 v 0 0 -1 h 1 v -1 h 1 v 0 l 1,-1 v 0 h 1 v -1 h 1 1 1 v 0 h 1 l 1,-1 h 1 1 1 1 1 1 1 1 1 2 l 1,1 h 1 1 2 1 l -1,6 h -1 l -1,-1 h -1 -1 -1 -1 -1 -1 -1 v 0 h -1 -1 -1 -1 v 0 h -1 -1 v 0 h -1 v 0 h -1 v 0 h -1 v 0 h -1 v 0 0 1 h -1 v 0 0 0 z m 26,-4 h 1 l 2,1 h 1 1 2 l 1,1 h 1 2 l 1,1 h 2 1 l 2,1 h 1 2 l 1,1 h 2 l 2,1 h 1 l 2,1 h 1 l 2,1 h 2 l 1,1 h 2 l 2,1 h 2 l 1,1 h 2 l 2,1 1,1 h 2 l 2,1 -2,5 h -2 l -1,-1 -2,-1 h -2 l -1,-1 h -2 l -2,-1 h -1 l -2,-1 -2,-1 h -1 -2 l -2,-1 h -1 l -2,-1 h -1 l -2,-1 h -1 -2 l -1,-1 h -2 l -1,-1 h -2 -1 l -2,-1 h -1 -1 -2 l -1,-1 h -1 -2 -1 z m 50,14 2,1 h 2 l 1,1 2,1 h 2 l 1,1 2,1 h 2 l 1,1 2,1 h 2 l 1,1 2,1 h 1 l 2,1 1,1 h 2 l 1,1 2,1 h 1 l 1,1 2,1 1,1 h 1 l 2,1 1,1 h 1 l 1,1 2,1 h 1 l 1,1 1,1 -3,4 h -1 l -1,-1 -1,-1 h -1 l -1,-1 -2,-1 h -1 l -1,-1 -1,-1 h -2 l -1,-1 -1,-1 h -2 l -1,-1 -2,-1 h -1 l -2,-1 -1,-1 h -2 l -1,-1 -2,-1 h -1 l -2,-1 -1,-1 h -2 l -2,-1 -1,-1 h -2 l -2,-1 -1,-1 h -2 l -2,-1 z m 47,22 h 1 l 1,1 1,1 h 1 l 2,1 v 1 l 1,1 h 1 l 1,1 1,1 h 1 l 1,1 v 1 h 1 l 1,1 v 1 h 1 v 1 h 1 v 1 l 1,1 v 0 1 0 l 1,1 v 1 0 1 0 1 0 1 l -6,-2 v 0 -1 0 0 0 -1 0 0 -1 h -1 v 0 -1 h -1 v -1 h -1 v 0 l -1,-1 v 0 l -1,-1 v 0 l -1,-1 h -1 v -1 h -1 l -1,-1 h -1 v -1 h -1 l -1,-1 -1,-1 h -1 l -1,-1 z"
             id="path6977" />
          <path
             style="fill:#c52f33"
             inkscape:connector-curvature="0"
             class="fil0"
             d="m 461,35 v 147 c 67,-16 174,9 216,64 -39,29 -90,34 -117,25 l -14,40 c 32,-11 60,-18 94,-18 21,0 41,1 60,5 15,2 21,5 34,9 V 160 C 667,176 569,151 527,96 553,61 611,62 638,71 l 11,-38 c -33,10 -58,15 -92,15 -20,0 -40,-2 -59,-5 -16,-2 -25,-4 -37,-8 z"
             id="path6979" />
          <path
             style="fill:#c52f33;fill-rule:nonzero"
             inkscape:connector-curvature="0"
             class="fil1"
             d="m 716,51 h 4 l 7,12 h 5 l -8,-12 c 2,0 3,0 4,-1 1,-1 2,-1 2,-2 1,-1 1,-3 1,-4 0,-3 0,-5 -2,-6 -2,-1 -4,-2 -7,-2 h -10 v 27 h 4 z m 0,-3 v -9 h 5 c 1,0 2,0 2,1 1,0 2,0 2,0 1,0 1,1 2,1 0,1 0,2 0,2 0,1 0,2 0,3 -1,0 -1,1 -2,1 0,0 -1,1 -2,1 -1,0 -2,0 -2,0 z m 5,25 c 2,0 5,0 7,-1 2,-1 4,-2 6,-3 2,-2 4,-3 6,-5 1,-2 2,-5 3,-7 1,-2 1,-5 1,-8 0,-2 0,-5 -1,-7 -1,-3 -2,-5 -3,-7 -2,-2 -4,-3 -6,-5 -2,-1 -4,-2 -6,-3 -2,-1 -5,-1 -7,-1 -3,0 -5,0 -8,1 -2,1 -4,2 -6,3 -2,2 -4,3 -6,5 -1,2 -2,4 -3,7 -1,2 -1,5 -1,7 0,3 0,6 1,8 1,2 2,5 3,7 2,2 4,3 6,5 2,1 4,2 6,3 3,1 5,1 8,1 z M 700,49 c 0,-3 1,-5 2,-8 1,-2 2,-4 4,-6 2,-2 4,-4 7,-5 2,-1 5,-1 8,-1 2,0 5,0 7,1 3,1 5,3 7,5 2,2 3,4 4,6 1,3 2,5 2,8 0,3 -1,6 -2,9 -1,2 -2,4 -4,6 -2,2 -4,4 -7,5 -2,1 -5,1 -7,1 -3,0 -6,0 -8,-1 -3,-1 -5,-3 -7,-5 -2,-2 -3,-4 -4,-6 -1,-3 -2,-6 -2,-9 z"
             id="path6981" />
        </g>
      </g>
    </g>
  </g>
</svg>
