<svg width="80" height="80" viewBox="0 0 80 80" fill="none" xmlns="http://www.w3.org/2000/svg">
<rect width="80" height="80" fill="#F7A70D"/>
<path d="M14.667 29.748C19.704 22.489 29.7779 20.5627 37.0371 25.5996C44.2964 30.6366 46.2226 40.7114 41.1855 47.9707L36.2959 43.8223C37.3329 42.3408 37.7773 40.5629 37.7773 38.7852C37.7773 36.4148 36.8884 34.0444 35.2588 32.2666C31.7032 28.1187 25.6295 27.8224 21.4814 31.3779C17.3334 34.9335 17.0373 41.1553 20.5928 45.1553C24.1482 49.3033 30.3701 49.6001 34.3701 46.0449L51.1113 59.6738L50.667 60.415L35.2588 53.1553C29.9255 55.8218 23.7033 55.3774 18.8144 52.1182C11.5555 47.081 9.63004 37.0072 14.667 29.748ZM55.5557 22.6367C59.7038 22.6368 63.8521 23.9701 67.1113 26.6367L63.5557 31.8223C61.1853 30.0445 58.3702 28.8591 55.4072 28.7109C52.7406 28.711 51.4072 29.8965 51.4072 31.3779V31.5264C51.4074 33.6001 52.7413 34.3406 58.0742 35.6738C64.4444 37.3034 67.9999 39.5259 68 45.1553V45.3037C68 51.5259 63.2593 54.9335 56.5928 54.9336C52.0003 54.7854 47.7039 53.3039 44.1484 50.4893L43.4072 49.8965C44.7405 47.9706 45.6291 46.0444 46.2217 43.8223C46.2217 43.8223 46.3704 43.9701 46.5186 44.1182C46.8117 44.4113 47.2494 44.85 47.2588 44.8594L47.4072 45.0078C49.9256 47.5261 53.1849 48.8593 56.7402 48.8594C59.5549 48.8594 61.1854 47.6742 61.1855 45.8965V45.748C61.1855 43.9703 60.148 43.0814 54.9629 41.748C48.5925 40.1184 44.5928 38.4888 44.5928 32.2666V32.1182C44.593 26.3406 49.1854 22.6367 55.5557 22.6367Z" fill="white"/>
</svg>
